<svg width="34" height="33" viewBox="0 0 34 33" fill="none" xmlns="http://www.w3.org/2000/svg">
<path d="M24.9838 12.6087C24.8881 12.2661 24.7057 11.9539 24.4542 11.7023C24.2026 11.4507 23.8904 11.2683 23.5477 11.1727C22.2616 10.8281 17.0856 10.8281 17.0856 10.8281C17.0856 10.8281 11.9226 10.8213 10.6234 11.1727C10.2808 11.2683 9.96857 11.4507 9.71701 11.7023C9.46545 11.9539 9.28304 12.2661 9.1874 12.6087C8.94361 13.9254 8.82342 15.2621 8.8284 16.6012C8.82436 17.9352 8.94455 19.2667 9.1874 20.5784C9.28304 20.9211 9.46545 21.2333 9.71701 21.4849C9.96857 21.7364 10.2808 21.9188 10.6234 22.0145C11.9082 22.3597 17.0856 22.3597 17.0856 22.3597C17.0856 22.3597 22.2479 22.3597 23.5477 22.0145C23.8904 21.9188 24.2026 21.7364 24.4542 21.4849C24.7057 21.2333 24.8881 20.9211 24.9838 20.5784C25.2216 19.2662 25.3367 17.9347 25.3277 16.6012C25.3376 15.2625 25.2225 13.9259 24.9838 12.6087ZM15.4336 19.0709V14.1239L19.7417 16.6012L15.4336 19.0709Z" fill="black"/>
</svg>
