<svg width="33" height="33" viewBox="0 0 33 33" fill="none" xmlns="http://www.w3.org/2000/svg">
<path d="M16.717 8.25C14.4168 8.25 14.1296 8.26058 13.2265 8.3008C12.3247 8.34314 11.7109 8.48496 11.1711 8.69452C10.6144 8.91043 10.1417 9.20042 9.67104 9.67104C9.20042 10.1417 8.90972 10.6137 8.69452 11.1711C8.48496 11.7109 8.34243 12.3247 8.3008 13.2265C8.25847 14.1296 8.25 14.4168 8.25 16.717C8.25 19.0172 8.26058 19.3044 8.3008 20.2075C8.34314 21.1085 8.48496 21.7231 8.69452 22.2629C8.91043 22.8189 9.20042 23.2923 9.67104 23.7629C10.1417 24.2329 10.6137 24.5243 11.1711 24.7395C11.7116 24.9483 12.3254 25.0916 13.2265 25.1332C14.1296 25.1755 14.4168 25.184 16.717 25.184C19.0172 25.184 19.3044 25.1734 20.2075 25.1332C21.1085 25.0909 21.7231 24.9483 22.2629 24.7395C22.8189 24.5236 23.2923 24.2329 23.7629 23.7629C24.2329 23.2923 24.5243 22.821 24.7395 22.2629C24.9483 21.7231 25.0916 21.1085 25.1332 20.2075C25.1755 19.3044 25.184 19.0172 25.184 16.717C25.184 14.4168 25.1734 14.1296 25.1332 13.2265C25.0909 12.3254 24.9483 11.7102 24.7395 11.1711C24.5236 10.6144 24.2329 10.1417 23.7629 9.67104C23.2923 9.20042 22.821 8.90972 22.2629 8.69452C21.7231 8.48496 21.1085 8.34243 20.2075 8.3008C19.3044 8.25847 19.0172 8.25 16.717 8.25ZM16.717 9.77406C18.977 9.77406 19.2465 9.78535 20.1391 9.82416C20.9646 9.86296 21.4127 9.99985 21.7104 10.117C22.1069 10.2701 22.3878 10.4535 22.6855 10.7492C22.9812 11.0455 23.1646 11.327 23.3177 11.7236C23.4334 12.0213 23.5717 12.4694 23.6091 13.2949C23.6494 14.1882 23.6585 14.4563 23.6585 16.717C23.6585 18.9777 23.6479 19.2465 23.6063 20.1391C23.5633 20.9646 23.4257 21.4127 23.3093 21.7104C23.1512 22.1069 22.9713 22.3878 22.6749 22.6855C22.3793 22.9812 22.0935 23.1646 21.7012 23.3177C21.4049 23.4334 20.9498 23.5717 20.1243 23.6091C19.2253 23.6494 18.9608 23.6585 16.6958 23.6585C14.4302 23.6585 14.1656 23.6479 13.2674 23.6063C12.4412 23.5633 11.9861 23.4257 11.6897 23.3093C11.2882 23.1512 11.0124 22.9713 10.7167 22.6749C10.4197 22.3793 10.2299 22.0935 10.0817 21.7012C9.96527 21.4049 9.82839 20.9498 9.78535 20.1243C9.7536 19.2352 9.74231 18.9608 9.74231 16.7064C9.74231 14.4514 9.7536 14.1762 9.78535 13.2766C9.82839 12.451 9.96527 11.9966 10.0817 11.7003C10.2299 11.2981 10.4197 11.0229 10.7167 10.7259C11.0124 10.4303 11.2882 10.2397 11.6897 10.0923C11.9861 9.97515 12.4313 9.83756 13.2568 9.79523C14.1564 9.76348 14.421 9.75289 16.6852 9.75289L16.717 9.77406ZM16.717 12.3692C14.3145 12.3692 12.3692 14.3166 12.3692 16.717C12.3692 19.1195 14.3166 21.0648 16.717 21.0648C19.1195 21.0648 21.0648 19.1174 21.0648 16.717C21.0648 14.3145 19.1174 12.3692 16.717 12.3692ZM16.717 19.5393C15.1577 19.5393 13.8947 18.2763 13.8947 16.717C13.8947 15.1577 15.1577 13.8947 16.717 13.8947C18.2763 13.8947 19.5393 15.1577 19.5393 16.717C19.5393 18.2763 18.2763 19.5393 16.717 19.5393ZM22.253 12.1977C22.253 12.7587 21.7972 13.2138 21.237 13.2138C20.676 13.2138 20.2209 12.758 20.2209 12.1977C20.2209 11.6375 20.6767 11.1824 21.237 11.1824C21.7965 11.1817 22.253 11.6375 22.253 12.1977Z" fill="black"/>
</svg>
