<svg width="243" height="49" viewBox="0 0 243 49" fill="none" xmlns="http://www.w3.org/2000/svg">
<path fill-rule="evenodd" clip-rule="evenodd" d="M26.365 18.2008L19.843 7L14.9279 15.3179L16.5348 18.1535L16.547 18.1327L29.7205 41.0359L33.0148 41.0359L25.4035 27.9438L30.4469 24.9539L29.0491 22.596L24.0257 25.574L18.1317 15.4357L19.8482 12.5144L24.002 19.5713L26.365 18.2008ZM14.4378 16.2005L16.0622 19.0042L14.1916 22.1875L25.1407 41.0209L21.828 41.0209L12.591 24.9113L10.6745 28.1727L9.05825 25.359L14.4378 16.2005ZM8.59506 26.1878L7.22913 28.5424L1.37082 38.6409L0 41.004H2.73186H14.4583H17.1901L15.8193 38.6409L9.96099 28.5424L8.59506 26.1878ZM8.59506 30.897L4.10268 38.6409H13.0874L8.59506 30.897Z" fill="black"/>
<path d="M50.5749 35.8115C46.7588 35.8115 43.9213 32.8027 43.9213 28.8888C43.9213 24.975 46.7833 21.9906 50.5504 21.9906C52.385 21.9906 53.8772 22.6756 54.8801 23.8253V17.0004H57.6199V35.518H55.0024V33.8057C54.024 35.1021 52.385 35.8115 50.5749 35.8115ZM50.844 33.243C53.1434 33.243 54.8801 31.4084 54.8801 28.8888C54.8801 26.3937 53.1434 24.5591 50.844 24.5591C48.5201 24.5591 46.8078 26.3937 46.8078 28.8888C46.8078 31.4084 48.4956 33.243 50.844 33.243ZM65.8371 35.8115C61.8743 35.8115 59.0856 32.7783 59.0856 28.8644C59.0856 24.9016 61.8987 21.9906 65.6169 21.9906C69.6042 21.9906 71.9281 24.975 71.9281 28.3996C71.9281 28.8155 71.9036 29.3047 71.8057 29.6961H61.9721C62.1434 31.9221 63.7823 33.3653 65.8615 33.3653C67.4516 33.3653 68.5768 32.5581 69.2373 31.4329L71.4877 32.5336C70.6805 34.4172 68.5279 35.8115 65.8371 35.8115ZM65.6169 24.3145C63.8312 24.3145 62.3635 25.4887 62.0211 27.4945H68.9926C68.8948 25.611 67.476 24.3145 65.6169 24.3145ZM78.295 35.8115C75.5797 35.8115 73.4026 34.3683 72.5954 32.1178L74.7236 31.1149C75.433 32.6315 76.7539 33.561 78.295 33.561C79.5915 33.561 80.4965 32.925 80.4965 31.9221C80.4965 30.9681 79.567 30.5522 78.7353 30.3321L76.656 29.745C74.3566 29.0845 73.2559 27.7391 73.2559 25.9534C73.2559 23.5807 75.2617 21.9906 77.977 21.9906C80.3987 21.9906 82.429 23.2382 83.2118 25.3664L81.0836 26.3693C80.5455 25.0973 79.3468 24.29 77.9525 24.29C76.7294 24.29 75.9711 24.9016 75.9711 25.8311C75.9711 26.7607 76.8273 27.1521 77.659 27.3967L79.8116 28.0327C81.9887 28.6687 83.2118 30.0141 83.2118 31.8487C83.2118 34.197 81.2304 35.8115 78.295 35.8115ZM84.6971 20.474V17.294H87.4612V20.474H84.6971ZM84.6971 35.518V22.2842H87.4612V35.518H84.6971ZM95.8545 40.8996C92.9435 40.8996 90.6197 39.4319 89.7635 37.2303L92.3075 36.1784C92.7478 37.426 94.0199 38.3311 95.83 38.3311C97.9337 38.3311 99.5237 37.0835 99.5237 34.9064V33.2186C98.5697 34.4417 97.102 35.0777 95.3897 35.0777C91.6715 35.0777 88.9318 32.2401 88.9318 28.5219C88.9318 24.8037 91.6471 21.9906 95.3653 21.9906C97.1754 21.9906 98.6431 22.7 99.6461 23.9965V22.2842H102.263V34.9064C102.263 38.38 99.5971 40.8996 95.8545 40.8996ZM95.7077 32.5092C97.8848 32.5092 99.5237 30.7969 99.5237 28.5464C99.5237 26.2959 97.8603 24.5591 95.7077 24.5591C93.4572 24.5591 91.8183 26.2959 91.8183 28.5464C91.8183 30.7724 93.4572 32.5092 95.7077 32.5092ZM104.276 35.518V22.2842H106.918V23.8987C107.676 22.6511 109.022 21.9906 110.661 21.9906C113.547 21.9906 115.651 24.0454 115.651 26.9564V35.518H112.911V27.7147C112.911 25.7577 111.712 24.5591 109.976 24.5591C108.263 24.5591 107.04 25.7577 107.04 27.7147V35.518H104.276ZM126.163 35.6647C123.374 35.6647 121.784 34.0258 121.784 31.1882V24.7793H119.46V22.2842H119.827C121.05 22.2842 121.784 21.5259 121.784 20.2783V19.2509H124.548V22.2842H127.557V24.7793H124.548V31.0659C124.548 32.4113 125.16 33.2186 126.75 33.2186C126.995 33.2186 127.337 33.1941 127.655 33.1452V35.518C127.215 35.5914 126.603 35.6647 126.163 35.6647ZM129.13 35.518V17.0004H131.894V23.703C132.652 22.6022 133.948 21.9906 135.514 21.9906C138.401 21.9906 140.504 24.0454 140.504 26.9564V35.518H137.765V27.7147C137.765 25.7577 136.541 24.5591 134.829 24.5591C133.141 24.5591 131.894 25.7577 131.894 27.7147V35.518H129.13ZM148.453 35.8115C144.49 35.8115 141.701 32.7783 141.701 28.8644C141.701 24.9016 144.514 21.9906 148.233 21.9906C152.22 21.9906 154.544 24.975 154.544 28.3996C154.544 28.8155 154.519 29.3047 154.421 29.6961H144.588C144.759 31.9221 146.398 33.3653 148.477 33.3653C150.067 33.3653 151.192 32.5581 151.853 31.4329L154.103 32.5336C153.296 34.4172 151.144 35.8115 148.453 35.8115ZM148.233 24.3145C146.447 24.3145 144.979 25.4887 144.637 27.4945H151.608C151.51 25.611 150.092 24.3145 148.233 24.3145ZM160.563 35.518V24.7793H158.117V22.2842H160.563V21.5993C160.563 18.6394 162.569 17.0004 165.382 17.0004C165.749 17.0004 166.263 17.0494 166.557 17.1228V19.52C166.287 19.4711 165.921 19.4466 165.725 19.4466C164.257 19.4466 163.303 20.0826 163.303 21.5993V22.2842H166.336V24.7793H163.303V35.518H160.563ZM172.411 35.8115C169.402 35.8115 167.421 33.6344 167.421 30.4544V22.2842H170.185V30.2098C170.185 32.0444 171.384 33.243 173.096 33.243C174.833 33.243 176.056 32.0199 176.056 30.0875V22.2842H178.796V35.518H176.178V33.879C175.445 35.1266 174.075 35.8115 172.411 35.8115ZM186.524 35.6647C183.736 35.6647 182.146 34.0258 182.146 31.1882V24.7793H179.822V22.2842H180.189C181.412 22.2842 182.146 21.5259 182.146 20.2783V19.2509H184.91V22.2842H187.918V24.7793H184.91V31.0659C184.91 32.4113 185.521 33.2186 187.111 33.2186C187.356 33.2186 187.698 33.1941 188.016 33.1452V35.518C187.576 35.5914 186.964 35.6647 186.524 35.6647ZM194.212 35.8115C191.203 35.8115 189.222 33.6344 189.222 30.4544V22.2842H191.986V30.2098C191.986 32.0444 193.184 33.243 194.897 33.243C196.634 33.243 197.857 32.0199 197.857 30.0875V22.2842H200.596V35.518H197.979V33.879C197.245 35.1266 195.875 35.8115 194.212 35.8115ZM202.601 35.518V22.2842H205.243V23.972C205.927 22.6511 207.151 22.1129 208.765 22.1129H209.572V24.6325H208.423C206.588 24.6325 205.365 25.8067 205.365 27.8859V35.518H202.601ZM216.453 35.8115C212.491 35.8115 209.702 32.7783 209.702 28.8644C209.702 24.9016 212.515 21.9906 216.233 21.9906C220.221 21.9906 222.544 24.975 222.544 28.3996C222.544 28.8155 222.52 29.3047 222.422 29.6961H212.589C212.76 31.9221 214.399 33.3653 216.478 33.3653C218.068 33.3653 219.193 32.5581 219.854 31.4329L222.104 32.5336C221.297 34.4172 219.144 35.8115 216.453 35.8115ZM216.233 24.3145C214.448 24.3145 212.98 25.4887 212.637 27.4945H219.609C219.511 25.611 218.092 24.3145 216.233 24.3145Z" fill="black"/>
<path d="M227.004 20.6195C226.369 20.6195 225.811 20.3741 225.472 19.9341V20.518H224.558V14.1124H225.515V16.4648C225.862 16.0671 226.378 15.8386 227.004 15.8386C228.307 15.8386 229.297 16.871 229.297 18.2248C229.297 19.5787 228.315 20.6195 227.004 20.6195ZM226.911 19.731C227.715 19.731 228.307 19.0964 228.307 18.2248C228.307 17.3618 227.715 16.7271 226.911 16.7271C226.107 16.7271 225.515 17.3618 225.515 18.2248C225.515 19.0964 226.107 19.731 226.911 19.731ZM232.207 20.6195C230.836 20.6195 229.872 19.5703 229.872 18.2164C229.872 16.8456 230.845 15.8386 232.131 15.8386C233.51 15.8386 234.314 16.871 234.314 18.0556C234.314 18.1995 234.306 18.3687 234.272 18.5041H230.87C230.929 19.2741 231.496 19.7733 232.216 19.7733C232.766 19.7733 233.155 19.4941 233.383 19.1049L234.162 19.4856C233.883 20.1372 233.138 20.6195 232.207 20.6195ZM232.131 16.6425C231.513 16.6425 231.006 17.0487 230.887 17.7425H233.299C233.265 17.091 232.774 16.6425 232.131 16.6425ZM237.058 20.5687C236.094 20.5687 235.544 20.0018 235.544 19.0202V16.8033H234.74V15.9402H234.867C235.29 15.9402 235.544 15.6779 235.544 15.2463V14.8909H236.5V15.9402H237.54V16.8033H236.5V18.9779C236.5 19.4433 236.711 19.7226 237.261 19.7226C237.346 19.7226 237.464 19.7141 237.574 19.6972V20.518C237.422 20.5434 237.21 20.5687 237.058 20.5687ZM239.668 20.6195C238.737 20.6195 238.111 20.1034 238.111 19.3079C238.111 18.5718 238.602 18.0302 239.659 17.8525L241.115 17.6156V17.4379C241.115 16.9894 240.751 16.6679 240.201 16.6679C239.693 16.6679 239.295 16.9556 239.118 17.3787L238.322 16.981C238.585 16.3125 239.355 15.8386 240.226 15.8386C241.309 15.8386 242.071 16.4902 242.071 17.4379V20.518H241.157V19.9849C240.81 20.391 240.302 20.6195 239.668 20.6195ZM239.109 19.2741C239.109 19.621 239.405 19.8664 239.82 19.8664C240.59 19.8664 241.115 19.3164 241.115 18.6141V18.3687L239.845 18.5887C239.338 18.6733 239.109 18.9187 239.109 19.2741Z" fill="black"/>
</svg>
