<svg width="36" height="36" viewBox="0 0 36 36" fill="none" xmlns="http://www.w3.org/2000/svg">
<rect width="35.0263" height="35.0263" rx="17.5132" fill="white"/>
<path d="M17.5132 6.46606C14.512 6.46606 14.1374 6.47987 12.959 6.53235C11.7825 6.58758 10.9816 6.77262 10.2773 7.04604C9.55097 7.32774 8.93417 7.7061 8.32014 8.32014C7.7061 8.93417 7.32682 9.55005 7.04604 10.2773C6.77262 10.9816 6.58666 11.7825 6.53235 12.959C6.47711 14.1374 6.46606 14.512 6.46606 17.5132C6.46606 20.5143 6.47987 20.889 6.53235 22.0673C6.58758 23.2429 6.77262 24.0448 7.04604 24.749C7.32774 25.4744 7.7061 26.0922 8.32014 26.7062C8.93417 27.3193 9.55005 27.6995 10.2773 27.9803C10.9825 28.2528 11.7834 28.4397 12.959 28.494C14.1374 28.5492 14.512 28.5603 17.5132 28.5603C20.5143 28.5603 20.889 28.5464 22.0673 28.494C23.2429 28.4387 24.0448 28.2528 24.749 27.9803C25.4744 27.6986 26.0922 27.3193 26.7062 26.7062C27.3193 26.0922 27.6995 25.4772 27.9803 24.749C28.2528 24.0448 28.4397 23.2429 28.494 22.0673C28.5492 20.889 28.5603 20.5143 28.5603 17.5132C28.5603 14.512 28.5464 14.1374 28.494 12.959C28.4387 11.7834 28.2528 10.9806 27.9803 10.2773C27.6986 9.55097 27.3193 8.93417 26.7062 8.32014C26.0922 7.7061 25.4772 7.32682 24.749 7.04604C24.0448 6.77262 23.2429 6.58666 22.0673 6.53235C20.889 6.47711 20.5143 6.46606 17.5132 6.46606ZM17.5132 8.45454C20.4618 8.45454 20.8135 8.46927 21.978 8.5199C23.0551 8.57054 23.6397 8.74913 24.0282 8.90195C24.5456 9.10172 24.912 9.34107 25.3004 9.7268C25.6862 10.1134 25.9255 10.4808 26.1253 10.9981C26.2763 11.3866 26.4567 11.9712 26.5055 13.0483C26.558 14.2138 26.5699 14.5636 26.5699 17.5132C26.5699 20.4627 26.5561 20.8135 26.5018 21.978C26.4457 23.0551 26.2661 23.6397 26.1142 24.0282C25.908 24.5456 25.6733 24.912 25.2866 25.3004C24.9009 25.6862 24.5281 25.9255 24.0162 26.1253C23.6296 26.2763 23.0358 26.4567 21.9587 26.5055C20.7859 26.558 20.4406 26.5699 17.4855 26.5699C14.5295 26.5699 14.1843 26.5561 13.0124 26.5018C11.9344 26.4457 11.3406 26.2661 10.9539 26.1142C10.4301 25.908 10.0702 25.6733 9.68445 25.2866C9.29688 24.9009 9.04924 24.5281 8.85592 24.0162C8.70402 23.6296 8.52543 23.0358 8.46927 21.9587C8.42784 20.7988 8.41312 20.4406 8.41312 17.4994C8.41312 14.5571 8.42784 14.1981 8.46927 13.0244C8.52543 11.9473 8.70402 11.3544 8.85592 10.9678C9.04924 10.443 9.29688 10.084 9.68445 9.69642C10.0702 9.31069 10.4301 9.06213 10.9539 8.86973C11.3406 8.71691 11.9215 8.5374 12.9986 8.48216C14.1723 8.44073 14.5176 8.42692 17.4717 8.42692L17.5132 8.45454ZM17.5132 11.8405C14.3785 11.8405 11.8405 14.3813 11.8405 17.5132C11.8405 20.6478 14.3813 23.1858 17.5132 23.1858C20.6478 23.1858 23.1858 20.645 23.1858 17.5132C23.1858 14.3785 20.645 11.8405 17.5132 11.8405ZM17.5132 21.1955C15.4787 21.1955 13.8308 19.5477 13.8308 17.5132C13.8308 15.4787 15.4787 13.8308 17.5132 13.8308C19.5477 13.8308 21.1955 15.4787 21.1955 17.5132C21.1955 19.5477 19.5477 21.1955 17.5132 21.1955ZM24.7361 11.6168C24.7361 12.3486 24.1414 12.9424 23.4105 12.9424C22.6786 12.9424 22.0848 12.3477 22.0848 11.6168C22.0848 10.8858 22.6795 10.292 23.4105 10.292C24.1405 10.2911 24.7361 10.8858 24.7361 11.6168Z" fill="black"/>
</svg>
