<svg width="37" height="36" viewBox="0 0 37 36" fill="none" xmlns="http://www.w3.org/2000/svg">
<rect x="0.986816" width="35.0263" height="35.0263" rx="17.5132" fill="white"/>
<path d="M29.5038 10.6729C28.6891 11.031 27.8192 11.2749 26.9032 11.3863C27.8367 10.8238 28.5547 9.93735 28.8944 8.87963C28.019 9.39054 27.0487 9.76244 26.0158 9.96957C25.191 9.08676 24.0155 8.53442 22.7101 8.53442C20.209 8.53442 18.181 10.5624 18.181 13.0608C18.181 13.4198 18.2224 13.765 18.2979 14.0955C14.5329 13.9178 11.1958 12.1099 8.96259 9.37673C8.56951 10.0414 8.3495 10.8137 8.3495 11.6551C8.3495 13.2292 9.15038 14.6128 10.3637 15.4257C9.62078 15.4017 8.92208 15.1974 8.31268 14.8586V14.9148C8.31268 17.1103 9.87117 18.9413 11.9452 19.3583C11.565 19.4605 11.1636 19.5157 10.7521 19.5157C10.4631 19.5157 10.186 19.4881 9.90892 19.4365C10.4898 21.2344 12.1597 22.5452 14.1471 22.5821C12.6006 23.7963 10.6408 24.5198 8.52993 24.5198C8.17091 24.5198 7.81282 24.4987 7.45288 24.4582C9.46797 25.7414 11.8421 26.4917 14.4095 26.4917C22.7442 26.4917 27.2963 19.5912 27.2963 13.6168C27.2963 13.4244 27.2963 13.2302 27.2825 13.0368C28.1672 12.4026 28.9395 11.6008 29.5471 10.6913L29.5038 10.6729Z" fill="black"/>
</svg>
