<svg width="36" height="36" viewBox="0 0 36 36" fill="none" xmlns="http://www.w3.org/2000/svg">
<rect x="0.973633" width="35.0263" height="35.0263" rx="17.5132" fill="white"/>
<path d="M29.0727 12.1768C28.9447 11.7179 28.7004 11.2999 28.3636 10.963C28.0267 10.6262 27.6087 10.3819 27.1498 10.2539C25.4277 9.79249 18.4967 9.79249 18.4967 9.79249C18.4967 9.79249 11.5833 9.78328 9.84365 10.2539C9.38481 10.3819 8.96676 10.6262 8.62991 10.963C8.29306 11.2999 8.0488 11.7179 7.92075 12.1768C7.59429 13.9399 7.43335 15.7297 7.44002 17.5228C7.43461 19.3091 7.59555 21.0921 7.92075 22.8486C8.0488 23.3074 8.29306 23.7255 8.62991 24.0623C8.96676 24.3992 9.38481 24.6434 9.84365 24.7715C11.564 25.2338 18.4967 25.2338 18.4967 25.2338C18.4967 25.2338 25.4093 25.2338 27.1498 24.7715C27.6087 24.6434 28.0267 24.3992 28.3636 24.0623C28.7004 23.7255 28.9447 23.3074 29.0727 22.8486C29.3912 21.0914 29.5453 19.3085 29.5332 17.5228C29.5466 15.7304 29.3924 13.9406 29.0727 12.1768ZM16.2847 20.8299V14.2056L22.0534 17.5228L16.2847 20.8299Z" fill="black"/>
</svg>
