<svg width="38" height="38" viewBox="0 0 38 38" fill="none" xmlns="http://www.w3.org/2000/svg">
<g clip-path="url(#clip0_524_643)">
<path fill-rule="evenodd" clip-rule="evenodd" d="M35.5532 13.6647C35.5532 13.6387 35.5305 13.6251 35.5272 13.598C35.5204 13.5402 35.5317 13.4802 35.5068 13.4259L32.0468 5.24856C31.9999 5.13853 31.9216 5.0447 31.8218 4.97871C31.7221 4.91272 31.6051 4.87746 31.4855 4.87732H5.95625C5.83661 4.87746 5.71965 4.91272 5.61986 4.97871C5.52007 5.0447 5.44183 5.13853 5.39486 5.24856L1.93264 13.4259C1.90887 13.4814 1.91905 13.5414 1.90999 13.598C1.90886 13.6251 1.88623 13.6387 1.88623 13.6647C1.88623 13.6783 1.8998 13.6874 1.8998 13.6998C1.90886 13.8322 1.94621 13.9601 2.03676 14.0665L18.2625 32.4766C18.276 32.4925 18.2998 32.4857 18.3134 32.5004C18.3575 32.54 18.3926 32.5751 18.4458 32.6045C18.4571 32.609 18.4594 32.6283 18.4741 32.6328C18.5533 32.6656 18.6382 32.6837 18.7175 32.6837C18.8018 32.6828 18.8853 32.6655 18.9631 32.6328C18.9789 32.6283 18.9812 32.609 18.9914 32.6023C19.0446 32.5762 19.0796 32.54 19.1215 32.5004C19.1373 32.4846 19.1611 32.4913 19.1747 32.4766L35.4004 14.0665C35.4855 13.9627 35.5344 13.8339 35.5396 13.6998C35.5396 13.6874 35.5532 13.6783 35.5532 13.6647ZM22.8576 6.09628L25.8422 13.057H11.5972L14.5841 6.09628H22.8576ZM25.8332 14.2725L18.7175 30.5537L11.6063 14.2725H25.8332ZM10.2752 14.2725L16.5998 28.7518L3.84088 14.2725H10.2752ZM27.1642 14.2725H33.5974L20.8373 28.7496L27.1642 14.2725ZM34.0275 13.057H27.1664L24.1819 6.09628H31.0814L34.0275 13.057ZM6.35802 6.09628H13.2621L10.2752 13.057H3.41193L6.35802 6.09628Z" fill="white"/>
</g>
<defs>
<clipPath id="clip0_524_643">
<rect width="35.0863" height="29.4272" fill="white" transform="translate(1.31982 4.3114)"/>
</clipPath>
</defs>
</svg>
