<svg width="133" height="79" viewBox="0 0 133 79" fill="none" xmlns="http://www.w3.org/2000/svg">
<path d="M66.034 12.8556C63.4062 12.8556 60.8374 13.6348 58.6525 15.0948C56.4675 16.5547 54.7646 18.6298 53.7589 21.0576C52.7533 23.4853 52.4902 26.1568 53.0029 28.7341C53.5155 31.3115 54.7809 33.6789 56.6391 35.537C58.4972 37.3952 60.8647 38.6606 63.442 39.1732C66.0193 39.6859 68.6908 39.4228 71.1186 38.4172C73.5463 37.4115 75.6214 35.7086 77.0813 33.5236C78.5413 31.3387 79.3205 28.7699 79.3205 26.1421C79.3205 22.6183 77.9207 19.2388 75.429 16.7471C72.9373 14.2554 69.5578 12.8556 66.034 12.8556ZM66.034 37.9493C63.6988 37.9493 61.416 37.2568 59.4743 35.9594C57.5326 34.662 56.0192 32.818 55.1256 30.6605C54.2319 28.503 53.9981 26.129 54.4537 23.8386C54.9093 21.5482 56.0338 19.4444 57.6851 17.7931C59.3363 16.1418 61.4402 15.0173 63.7306 14.5617C66.0209 14.1061 68.395 14.3399 70.5525 15.2336C72.71 16.1273 74.554 17.6406 75.8514 19.5823C77.1488 21.524 77.8413 23.8068 77.8413 26.1421C77.8366 29.2721 76.5911 32.2726 74.3778 34.4859C72.1646 36.6991 69.1641 37.9446 66.034 37.9493Z" fill="white"/>
<path d="M64.1831 28.4363L61.3486 25.6019L60.0908 26.8508L64.1831 30.9342L72.775 22.3423L71.526 21.0845L64.1831 28.4363Z" fill="white"/>
<path d="M0.799825 77.275V70.3892H5.39348V71.4983H2.05684V73.4023H4.97756V74.5114H2.05684V77.275H0.799825ZM7.13978 77.275V70.3892H8.3968V76.1659H11.3452V77.275H7.13978ZM13.0826 77.275V70.3892H17.6578V71.4983H14.3396V73.2637H17.4729V74.3728H14.3396V76.1659H17.6578V77.275H13.0826ZM18.94 77.275L21.1952 73.809L18.9585 70.3892H20.4003L22.2304 73.1897H21.5649L23.3858 70.3892H24.8276L22.6001 73.809L24.8461 77.275H23.4042L21.5649 74.4375H22.2304L20.3819 77.275H18.94ZM26.5388 77.275V70.3892H27.7958V77.275H26.5388ZM30.0445 77.275V70.3892H32.9467C33.4027 70.3892 33.7909 70.4693 34.1113 70.6295C34.4379 70.7835 34.6875 71.0053 34.86 71.295C35.0387 71.5784 35.128 71.9235 35.128 72.3301C35.128 72.6444 35.0418 72.9402 34.8692 73.2175C34.7029 73.4886 34.4348 73.7135 34.0651 73.8922V73.3099C34.404 73.4393 34.6721 73.5995 34.8692 73.7905C35.0664 73.9815 35.2051 74.1941 35.2852 74.4283C35.3653 74.6624 35.4053 74.9089 35.4053 75.1677C35.4053 75.827 35.1866 76.3446 34.7491 76.7205C34.3178 77.0902 33.717 77.275 32.9467 77.275H30.0445ZM31.3015 76.1659H33.0761C33.4027 76.1659 33.6615 76.0765 33.8525 75.8979C34.0497 75.713 34.1483 75.4696 34.1483 75.1677C34.1483 74.8657 34.0497 74.6224 33.8525 74.4375C33.6615 74.2526 33.4027 74.1602 33.0761 74.1602H31.3015V76.1659ZM31.3015 73.0603H33.0114C33.2702 73.0603 33.4767 72.9864 33.6307 72.8385C33.7848 72.6845 33.8618 72.4873 33.8618 72.247C33.8618 72.0066 33.7848 71.8156 33.6307 71.6739C33.4767 71.5322 33.2702 71.4613 33.0114 71.4613H31.3015V73.0603ZM37.3593 77.275V70.3892H38.6163V76.1659H41.5648V77.275H37.3593ZM43.3021 77.275V70.3892H47.8773V71.4983H44.5591V73.2637H47.6924V74.3728H44.5591V76.1659H47.8773V77.275H43.3021ZM51.7265 77.275L54.1019 70.3892H55.7286L58.104 77.275H56.7361L56.2462 75.7962H53.5843L53.0852 77.275H51.7265ZM53.9448 74.6871H55.8858L54.7397 71.258H55.0909L53.9448 74.6871ZM59.7947 77.275V70.3892H60.7744L64.5639 75.4912L64.0556 75.5928V70.3892H65.3126V77.275H64.3236L60.5895 72.136L61.0517 72.0344V77.275H59.7947ZM67.5698 77.275V70.3892H69.8158C70.5429 70.3892 71.1745 70.537 71.7105 70.8328C72.2528 71.1224 72.6718 71.526 72.9676 72.0436C73.2633 72.5551 73.4112 73.1497 73.4112 73.8275C73.4112 74.4991 73.2633 75.0968 72.9676 75.6206C72.6718 76.1382 72.2528 76.5448 71.7105 76.8406C71.1745 77.1302 70.5429 77.275 69.8158 77.275H67.5698ZM68.8268 76.1659H69.8435C70.3118 76.1659 70.7154 76.0704 71.0543 75.8794C71.3994 75.6822 71.6674 75.4111 71.8584 75.066C72.0494 74.7148 72.1449 74.3019 72.1449 73.8275C72.1449 73.3468 72.0494 72.934 71.8584 72.5889C71.6674 72.2439 71.3994 71.9758 71.0543 71.7848C70.7154 71.5938 70.3118 71.4983 69.8435 71.4983H68.8268V76.1659ZM80.3615 77.3859C79.924 77.3859 79.5173 77.3058 79.1414 77.1456C78.7717 76.9854 78.4513 76.7636 78.1802 76.4801C77.9152 76.1905 77.7211 75.8547 77.5979 75.4727L78.6423 75.0198C78.8087 75.4141 79.049 75.7253 79.3633 75.9533C79.6775 76.1751 80.0318 76.286 80.4262 76.286C80.648 76.286 80.839 76.2522 80.9992 76.1844C81.1656 76.1104 81.2919 76.0118 81.3782 75.8886C81.4706 75.7654 81.5168 75.6175 81.5168 75.445C81.5168 75.2416 81.4552 75.0752 81.332 74.9458C81.2149 74.8103 81.0362 74.7055 80.7959 74.6316L79.4742 74.2064C78.9381 74.0401 78.5345 73.7905 78.2634 73.4578C77.9922 73.125 77.8567 72.7337 77.8567 72.2839C77.8567 71.8896 77.9522 71.5414 78.1432 71.2395C78.3404 70.9376 78.6115 70.7034 78.9566 70.537C79.3078 70.3645 79.7083 70.2783 80.1581 70.2783C80.571 70.2783 80.9499 70.3522 81.295 70.5001C81.6401 70.6418 81.9358 70.8421 82.1823 71.1009C82.4349 71.3535 82.6229 71.6523 82.7461 71.9974L81.7109 72.4595C81.5754 72.1145 81.372 71.8495 81.1009 71.6647C80.8298 71.4736 80.5155 71.3781 80.1581 71.3781C79.9486 71.3781 79.7638 71.4151 79.6036 71.4891C79.4434 71.5568 79.317 71.6554 79.2246 71.7848C79.1383 71.9081 79.0952 72.0559 79.0952 72.2285C79.0952 72.4195 79.1568 72.5889 79.2801 72.7368C79.4033 72.8785 79.5912 72.9895 79.8439 73.0696L81.1101 73.467C81.6585 73.6457 82.0683 73.8922 82.3394 74.2064C82.6167 74.5207 82.7554 74.9089 82.7554 75.371C82.7554 75.7654 82.6537 76.1135 82.4503 76.4154C82.247 76.7174 81.9666 76.9546 81.6092 77.1271C81.2519 77.2997 80.8359 77.3859 80.3615 77.3859ZM88.0465 77.3859C87.5535 77.3859 87.0975 77.2966 86.6785 77.1179C86.2657 76.9392 85.9022 76.6896 85.5879 76.3692C85.2798 76.0488 85.0395 75.6729 84.867 75.2416C84.6944 74.8103 84.6082 74.3389 84.6082 73.8275C84.6082 73.316 84.6913 72.8447 84.8577 72.4133C85.0303 71.9758 85.2706 71.6 85.5787 71.2857C85.8929 70.9653 86.2595 70.7188 86.6785 70.5463C87.0975 70.3676 87.5535 70.2783 88.0465 70.2783C88.5394 70.2783 88.98 70.3614 89.3682 70.5278C89.7625 70.6942 90.0953 70.916 90.3664 71.1933C90.6375 71.4644 90.8316 71.7633 90.9487 72.0898L89.8211 72.6167C89.6917 72.2716 89.4729 71.9882 89.1648 71.7663C88.8568 71.5383 88.484 71.4244 88.0465 71.4244C87.6151 71.4244 87.2331 71.526 86.9004 71.7294C86.5738 71.9327 86.3181 72.2131 86.1332 72.5705C85.9545 72.9278 85.8652 73.3468 85.8652 73.8275C85.8652 74.3081 85.9545 74.7302 86.1332 75.0937C86.3181 75.4511 86.5738 75.7315 86.9004 75.9348C87.2331 76.1382 87.6151 76.2398 88.0465 76.2398C88.484 76.2398 88.8568 76.1289 89.1648 75.9071C89.4729 75.6791 89.6917 75.3926 89.8211 75.0475L90.9487 75.5744C90.8316 75.9009 90.6375 76.2029 90.3664 76.4801C90.0953 76.7513 89.7625 76.97 89.3682 77.1364C88.98 77.3028 88.5394 77.3859 88.0465 77.3859ZM92.3297 77.275L94.7051 70.3892H96.3318L98.7072 77.275H97.3393L96.8494 75.7962H94.1875L93.6884 77.275H92.3297ZM94.548 74.6871H96.489L95.3428 71.258H95.6941L94.548 74.6871ZM100.398 77.275V70.3892H101.655V76.1659H104.603V77.275H100.398ZM105.777 77.275L108.152 70.3892H109.779L112.154 77.275H110.786L110.297 75.7962H107.635L107.136 77.275H105.777ZM107.995 74.6871H109.936L108.79 71.258H109.141L107.995 74.6871ZM113.845 77.275V70.3892H116.747C117.203 70.3892 117.591 70.4693 117.912 70.6295C118.238 70.7835 118.488 71.0053 118.66 71.295C118.839 71.5784 118.929 71.9235 118.929 72.3301C118.929 72.6444 118.842 72.9402 118.67 73.2175C118.503 73.4886 118.235 73.7135 117.866 73.8922V73.3099C118.204 73.4393 118.473 73.5995 118.67 73.7905C118.867 73.9815 119.006 74.1941 119.086 74.4283C119.166 74.6624 119.206 74.9089 119.206 75.1677C119.206 75.827 118.987 76.3446 118.55 76.7205C118.118 77.0902 117.517 77.275 116.747 77.275H113.845ZM115.102 76.1659H116.877C117.203 76.1659 117.462 76.0765 117.653 75.8979C117.85 75.713 117.949 75.4696 117.949 75.1677C117.949 74.8657 117.85 74.6224 117.653 74.4375C117.462 74.2526 117.203 74.1602 116.877 74.1602H115.102V76.1659ZM115.102 73.0603H116.812C117.071 73.0603 117.277 72.9864 117.431 72.8385C117.585 72.6845 117.662 72.4873 117.662 72.247C117.662 72.0066 117.585 71.8156 117.431 71.6739C117.277 71.5322 117.071 71.4613 116.812 71.4613H115.102V73.0603ZM121.16 77.275V70.3892H122.417V76.1659H125.365V77.275H121.16ZM127.103 77.275V70.3892H131.678V71.4983H128.36V73.2637H131.493V74.3728H128.36V76.1659H131.678V77.275H127.103Z" fill="white"/>
</svg>
