<svg width="130" height="79" viewBox="0 0 130 79" fill="none" xmlns="http://www.w3.org/2000/svg">
<g clip-path="url(#clip0_524_575)">
<path d="M53.3276 35.0819C54.6601 32.4004 55.3514 29.446 55.347 26.4517C55.3457 24.9966 55.6721 23.5599 56.3022 22.2482C56.9322 20.9366 57.8496 19.7838 58.9863 18.8754M65.0519 26.4517C65.0596 31.3843 63.8082 36.2373 61.4163 40.5511" stroke="white" stroke-width="1.21311" stroke-linecap="round" stroke-linejoin="round"/>
<path d="M60.1997 26.4515C60.1997 25.1645 60.7109 23.9303 61.621 23.0202C62.531 22.1102 63.7652 21.599 65.0522 21.599C66.3391 21.599 67.5733 22.1102 68.4834 23.0202C69.3934 23.9303 69.9046 25.1645 69.9046 26.4515C69.9117 31.4531 68.8099 36.3941 66.6785 40.9188" stroke="white" stroke-width="1.21311" stroke-linecap="round" stroke-linejoin="round"/>
<path d="M78.784 34.9432C79.3342 32.1461 79.6105 29.3021 79.6091 26.4514C79.6091 22.5905 78.0754 18.8878 75.3453 16.1578C72.6153 13.4278 68.9126 11.894 65.0517 11.894C61.1909 11.894 57.4882 13.4278 54.7581 16.1578C52.0281 18.8878 50.4944 22.5905 50.4944 26.4514C50.4962 28.1042 50.216 29.7453 49.666 31.3039M59.714 31.3038C59.1961 33.8547 58.2685 36.3048 56.9671 38.559" stroke="white" stroke-width="1.21311" stroke-linecap="round" stroke-linejoin="round"/>
<path d="M63.8389 16.8217C65.2048 16.6508 66.5915 16.7723 67.9069 17.178C69.2224 17.5838 70.4365 18.2645 71.4689 19.1751C72.5013 20.0857 73.3284 21.2053 73.8952 22.4598C74.4621 23.7143 74.7558 25.0749 74.7569 26.4515C74.7573 28.0736 74.657 29.6942 74.4566 31.3039M73.5339 36.1563C73.3029 37.0538 73.041 37.9384 72.7483 38.81" stroke="white" stroke-width="1.21311" stroke-linecap="round" stroke-linejoin="round"/>
</g>
<path d="M4.19087 77.3859C3.66095 77.3859 3.18957 77.275 2.77673 77.0532C2.37005 76.8314 2.04963 76.5264 1.81548 76.1382C1.58133 75.75 1.46426 75.3094 1.46426 74.8164V70.3892H2.72127V74.7517C2.72127 75.0352 2.78289 75.2909 2.90613 75.5189C3.03553 75.7469 3.21114 75.9256 3.43296 76.055C3.65479 76.1782 3.90743 76.2398 4.19087 76.2398C4.48048 76.2398 4.73311 76.1782 4.94878 76.055C5.1706 75.9256 5.34314 75.7469 5.46637 75.5189C5.59577 75.2909 5.66047 75.0352 5.66047 74.7517V70.3892H6.91749V74.8164C6.91749 75.3094 6.80041 75.75 6.56626 76.1382C6.33211 76.5264 6.00862 76.8314 5.59577 77.0532C5.18909 77.275 4.72079 77.3859 4.19087 77.3859ZM9.09669 77.275V70.3892H10.0764L13.866 75.4912L13.3576 75.5928V70.3892H14.6146V77.275H13.6256L9.89156 72.136L10.3537 72.0344V77.275H9.09669ZM16.8718 77.275V70.3892H18.1288V77.275H16.8718ZM23.7696 77.3859C23.2644 77.3859 22.793 77.2966 22.3555 77.1179C21.918 76.9392 21.536 76.6896 21.2094 76.3692C20.8828 76.0488 20.6271 75.6729 20.4423 75.2416C20.2636 74.8041 20.1742 74.3327 20.1742 73.8275C20.1742 73.316 20.2636 72.8447 20.4423 72.4133C20.6209 71.982 20.8736 71.6061 21.2002 71.2857C21.5267 70.9653 21.9088 70.7188 22.3463 70.5463C22.7838 70.3676 23.2582 70.2783 23.7696 70.2783C24.2811 70.2783 24.7555 70.3676 25.193 70.5463C25.6305 70.725 26.0126 70.9745 26.3391 71.295C26.6657 71.6092 26.9184 71.982 27.097 72.4133C27.2819 72.8447 27.3743 73.316 27.3743 73.8275C27.3743 74.3327 27.2819 74.8041 27.097 75.2416C26.9122 75.6729 26.6565 76.0488 26.3299 76.3692C26.0033 76.6896 25.6213 76.9392 25.1838 77.1179C24.7525 77.2966 24.2811 77.3859 23.7696 77.3859ZM23.7696 76.2398C24.1085 76.2398 24.4197 76.1813 24.7032 76.0642C24.9866 75.941 25.2331 75.7715 25.4426 75.5559C25.6583 75.3402 25.8215 75.0845 25.9325 74.7887C26.0495 74.493 26.1081 74.1725 26.1081 73.8275C26.1081 73.4824 26.0495 73.1651 25.9325 72.8755C25.8215 72.5797 25.6583 72.324 25.4426 72.1083C25.2331 71.8865 24.9866 71.717 24.7032 71.6C24.4197 71.4829 24.1085 71.4244 23.7696 71.4244C23.4369 71.4244 23.1288 71.4829 22.8454 71.6C22.5619 71.717 22.3124 71.8865 22.0967 72.1083C21.8872 72.324 21.7239 72.5797 21.6068 72.8755C21.4898 73.1651 21.4312 73.4824 21.4312 73.8275C21.4312 74.1725 21.4898 74.493 21.6068 74.7887C21.7239 75.0845 21.8872 75.3402 22.0967 75.5559C22.3124 75.7715 22.5619 75.941 22.8454 76.0642C23.1288 76.1813 23.4369 76.2398 23.7696 76.2398ZM25.3594 78.1069L23.2151 74.5207H24.5276L26.6996 78.1069H25.3594ZM32.069 77.3859C31.5391 77.3859 31.0677 77.275 30.6549 77.0532C30.2482 76.8314 29.9278 76.5264 29.6936 76.1382C29.4595 75.75 29.3424 75.3094 29.3424 74.8164V70.3892H30.5994V74.7517C30.5994 75.0352 30.661 75.2909 30.7843 75.5189C30.9137 75.7469 31.0893 75.9256 31.3111 76.055C31.5329 76.1782 31.7856 76.2398 32.069 76.2398C32.3586 76.2398 32.6112 76.1782 32.8269 76.055C33.0487 75.9256 33.2213 75.7469 33.3445 75.5189C33.4739 75.2909 33.5386 75.0352 33.5386 74.7517V70.3892H34.7956V74.8164C34.7956 75.3094 34.6785 75.75 34.4444 76.1382C34.2102 76.5264 33.8867 76.8314 33.4739 77.0532C33.0672 77.275 32.5989 77.3859 32.069 77.3859ZM36.9748 77.275V70.3892H41.55V71.4983H38.2318V73.2637H41.3651V74.3728H38.2318V76.1659H41.55V77.275H36.9748ZM45.3992 77.275L47.7746 70.3892H49.4014L51.7767 77.275H50.4088L49.9189 75.7962H47.257L46.7579 77.275H45.3992ZM47.6175 74.6871H49.5585L48.4124 71.258H48.7636L47.6175 74.6871ZM53.4674 77.275V70.3892H54.4471L58.2366 75.4912L57.7283 75.5928V70.3892H58.9853V77.275H57.9963L54.2623 72.136L54.7244 72.0344V77.275H53.4674ZM61.2425 77.275V70.3892H63.4885C64.2156 70.3892 64.8472 70.537 65.3832 70.8328C65.9255 71.1224 66.3445 71.526 66.6403 72.0436C66.936 72.5551 67.0839 73.1497 67.0839 73.8275C67.0839 74.4991 66.936 75.0968 66.6403 75.6206C66.3445 76.1382 65.9255 76.5448 65.3832 76.8406C64.8472 77.1302 64.2156 77.275 63.4885 77.275H61.2425ZM62.4995 76.1659H63.5162C63.9845 76.1659 64.3881 76.0704 64.727 75.8794C65.0721 75.6822 65.3401 75.4111 65.5311 75.066C65.7222 74.7148 65.8177 74.3019 65.8177 73.8275C65.8177 73.3468 65.7222 72.934 65.5311 72.5889C65.3401 72.2439 65.0721 71.9758 64.727 71.7848C64.3881 71.5938 63.9845 71.4983 63.5162 71.4983H62.4995V76.1659ZM71.0118 77.275L73.3872 70.3892H75.0139L77.3893 77.275H76.0214L75.5315 75.7962H72.8696L72.3705 77.275H71.0118ZM73.2301 74.6871H75.171L74.0249 71.258H74.3762L73.2301 74.6871ZM79.0799 77.275V70.3892H80.337V76.1659H83.2854V77.275H79.0799ZM85.0228 77.275V70.3892H86.2798V76.1659H89.2282V77.275H85.0228ZM95.2887 77.275V74.2249L92.9688 70.3892H94.4014L96.176 73.3838H95.6677L97.433 70.3892H98.8657L96.555 74.2157V77.275H95.2887ZM103.671 77.3859C103.166 77.3859 102.694 77.2966 102.257 77.1179C101.819 76.9392 101.437 76.6896 101.111 76.3692C100.784 76.0488 100.528 75.6729 100.343 75.2416C100.165 74.8041 100.075 74.3327 100.075 73.8275C100.075 73.316 100.165 72.8447 100.343 72.4133C100.522 71.982 100.775 71.6061 101.101 71.2857C101.428 70.9653 101.81 70.7188 102.247 70.5463C102.685 70.3676 103.159 70.2783 103.671 70.2783C104.182 70.2783 104.657 70.3676 105.094 70.5463C105.532 70.725 105.914 70.9745 106.24 71.295C106.567 71.6092 106.82 71.982 106.998 72.4133C107.183 72.8447 107.276 73.316 107.276 73.8275C107.276 74.3327 107.183 74.8041 106.998 75.2416C106.813 75.6729 106.558 76.0488 106.231 76.3692C105.904 76.6896 105.522 76.9392 105.085 77.1179C104.654 77.2966 104.182 77.3859 103.671 77.3859ZM103.671 76.2398C104.01 76.2398 104.321 76.1813 104.604 76.0642C104.888 75.941 105.134 75.7715 105.344 75.5559C105.559 75.3402 105.723 75.0845 105.834 74.7887C105.951 74.493 106.009 74.1725 106.009 73.8275C106.009 73.4824 105.951 73.1651 105.834 72.8755C105.723 72.5797 105.559 72.324 105.344 72.1083C105.134 71.8865 104.888 71.717 104.604 71.6C104.321 71.4829 104.01 71.4244 103.671 71.4244C103.338 71.4244 103.03 71.4829 102.747 71.6C102.463 71.717 102.214 71.8865 101.998 72.1083C101.788 72.324 101.625 72.5797 101.508 72.8755C101.391 73.1651 101.332 73.4824 101.332 73.8275C101.332 74.1725 101.391 74.493 101.508 74.7887C101.625 75.0845 101.788 75.3402 101.998 75.5559C102.214 75.7715 102.463 75.941 102.747 76.0642C103.03 76.1813 103.338 76.2398 103.671 76.2398ZM111.97 77.3859C111.44 77.3859 110.969 77.275 110.556 77.0532C110.149 76.8314 109.829 76.5264 109.595 76.1382C109.361 75.75 109.244 75.3094 109.244 74.8164V70.3892H110.501V74.7517C110.501 75.0352 110.562 75.2909 110.685 75.5189C110.815 75.7469 110.99 75.9256 111.212 76.055C111.434 76.1782 111.687 76.2398 111.97 76.2398C112.26 76.2398 112.512 76.1782 112.728 76.055C112.95 75.9256 113.122 75.7469 113.246 75.5189C113.375 75.2909 113.44 75.0352 113.44 74.7517V70.3892H114.697V74.8164C114.697 75.3094 114.58 75.75 114.346 76.1382C114.111 76.5264 113.788 76.8314 113.375 77.0532C112.968 77.275 112.5 77.3859 111.97 77.3859ZM116.876 77.275V70.3892H119.436C119.905 70.3892 120.317 70.4754 120.675 70.648C121.038 70.8143 121.322 71.0608 121.525 71.3874C121.728 71.7078 121.83 72.0991 121.83 72.5612C121.83 73.0357 121.716 73.4393 121.488 73.772C121.266 74.1048 120.964 74.3512 120.582 74.5114L122.163 77.275H120.739L119.048 74.2526L119.861 74.7333H118.133V77.275H116.876ZM118.133 73.6241H119.455C119.683 73.6241 119.88 73.581 120.046 73.4947C120.213 73.4023 120.342 73.276 120.434 73.1158C120.527 72.9556 120.573 72.7707 120.573 72.5612C120.573 72.3455 120.527 72.1607 120.434 72.0066C120.342 71.8464 120.213 71.7232 120.046 71.6369C119.88 71.5445 119.683 71.4983 119.455 71.4983H118.133V73.6241ZM126.37 77.3859C125.932 77.3859 125.525 77.3058 125.15 77.1456C124.78 76.9854 124.459 76.7636 124.188 76.4801C123.923 76.1905 123.729 75.8547 123.606 75.4727L124.65 75.0198C124.817 75.4141 125.057 75.7253 125.371 75.9533C125.686 76.1751 126.04 76.286 126.434 76.286C126.656 76.286 126.847 76.2522 127.007 76.1844C127.174 76.1104 127.3 76.0118 127.386 75.8886C127.479 75.7654 127.525 75.6175 127.525 75.445C127.525 75.2416 127.463 75.0752 127.34 74.9458C127.223 74.8103 127.044 74.7055 126.804 74.6316L125.482 74.2064C124.946 74.0401 124.543 73.7905 124.271 73.4578C124 73.125 123.865 72.7337 123.865 72.2839C123.865 71.8896 123.96 71.5414 124.151 71.2395C124.348 70.9376 124.62 70.7034 124.965 70.537C125.316 70.3645 125.716 70.2783 126.166 70.2783C126.579 70.2783 126.958 70.3522 127.303 70.5001C127.648 70.6418 127.944 70.8421 128.19 71.1009C128.443 71.3535 128.631 71.6523 128.754 71.9974L127.719 72.4595C127.583 72.1145 127.38 71.8495 127.109 71.6647C126.838 71.4736 126.524 71.3781 126.166 71.3781C125.957 71.3781 125.772 71.4151 125.612 71.4891C125.451 71.5568 125.325 71.6554 125.233 71.7848C125.146 71.9081 125.103 72.0559 125.103 72.2285C125.103 72.4195 125.165 72.5889 125.288 72.7368C125.411 72.8785 125.599 72.9895 125.852 73.0696L127.118 73.467C127.667 73.6457 128.076 73.8922 128.347 74.2064C128.625 74.5207 128.763 74.9089 128.763 75.371C128.763 75.7654 128.662 76.1135 128.458 76.4154C128.255 76.7174 127.975 76.9546 127.617 77.1271C127.26 77.2997 126.844 77.3859 126.37 77.3859Z" fill="white"/>
<defs>
<clipPath id="clip0_524_575">
<rect width="38.8196" height="38.8196" fill="white" transform="translate(45.6411 7.04028)"/>
</clipPath>
</defs>
</svg>
