<svg width="52" height="53" viewBox="0 0 52 53" fill="none" xmlns="http://www.w3.org/2000/svg">
<g clip-path="url(#clip0_524_656)">
<path d="M14.3276 35.0818C15.6601 32.4003 16.3514 29.4459 16.347 26.4516C16.3457 24.9965 16.6721 23.5598 17.3022 22.2482C17.9322 20.9366 18.8496 19.7837 19.9863 18.8753M26.0519 26.4516C26.0596 31.3842 24.8082 36.2372 22.4163 40.5511" stroke="white" stroke-width="1.21311" stroke-linecap="round" stroke-linejoin="round"/>
<path d="M21.1997 26.4515C21.1997 25.1645 21.7109 23.9303 22.621 23.0202C23.531 22.1102 24.7652 21.599 26.0522 21.599C27.3391 21.599 28.5733 22.1102 29.4834 23.0202C30.3934 23.9303 30.9046 25.1645 30.9046 26.4515C30.9117 31.4531 29.8099 36.3941 27.6785 40.9188" stroke="white" stroke-width="1.21311" stroke-linecap="round" stroke-linejoin="round"/>
<path d="M39.784 34.9432C40.3342 32.1462 40.6105 29.3021 40.6091 26.4515C40.6091 22.5906 39.0754 18.8879 36.3453 16.1579C33.6153 13.4278 29.9126 11.8941 26.0517 11.8941C22.1909 11.8941 18.4882 13.4278 15.7581 16.1579C13.0281 18.8879 11.4944 22.5906 11.4944 26.4515C11.4962 28.1043 11.216 29.7453 10.666 31.3039M20.714 31.3039C20.1961 33.8547 19.2685 36.3049 17.9671 38.5591" stroke="white" stroke-width="1.21311" stroke-linecap="round" stroke-linejoin="round"/>
<path d="M24.8389 16.8217C26.2048 16.6508 27.5915 16.7723 28.9069 17.178C30.2224 17.5838 31.4365 18.2645 32.4689 19.1751C33.5013 20.0857 34.3284 21.2053 34.8952 22.4598C35.4621 23.7143 35.7558 25.0749 35.7569 26.4515C35.7573 28.0736 35.657 29.6942 35.4566 31.3039M34.5339 36.1563C34.3029 37.0538 34.041 37.9384 33.7483 38.81" stroke="white" stroke-width="1.21311" stroke-linecap="round" stroke-linejoin="round"/>
</g>
<defs>
<clipPath id="clip0_524_656">
<rect width="38.8196" height="38.8196" fill="white" transform="translate(6.64111 7.04028)"/>
</clipPath>
</defs>
</svg>
