<svg width="112" height="79" viewBox="0 0 112 79" fill="none" xmlns="http://www.w3.org/2000/svg">
<g clip-path="url(#clip0_524_561)">
<path fill-rule="evenodd" clip-rule="evenodd" d="M72.5532 20.6647C72.5532 20.6387 72.5305 20.6251 72.5272 20.598C72.5204 20.5402 72.5317 20.4802 72.5068 20.4259L69.0468 12.2486C68.9999 12.1385 68.9216 12.0447 68.8218 11.9787C68.7221 11.9127 68.6051 11.8775 68.4855 11.8773H42.9562C42.8366 11.8775 42.7196 11.9127 42.6199 11.9787C42.5201 12.0447 42.4418 12.1385 42.3949 12.2486L38.9326 20.4259C38.9089 20.4814 38.919 20.5414 38.91 20.598C38.9089 20.6251 38.8862 20.6387 38.8862 20.6647C38.8862 20.6783 38.8998 20.6874 38.8998 20.6998C38.9089 20.8322 38.9462 20.9601 39.0368 21.0665L55.2625 39.4766C55.276 39.4925 55.2998 39.4857 55.3134 39.5004C55.3575 39.54 55.3926 39.5751 55.4458 39.6045C55.4571 39.609 55.4594 39.6283 55.4741 39.6328C55.5533 39.6656 55.6382 39.6837 55.7175 39.6837C55.8018 39.6828 55.8853 39.6655 55.9631 39.6328C55.9789 39.6283 55.9812 39.609 55.9914 39.6023C56.0446 39.5762 56.0796 39.54 56.1215 39.5004C56.1373 39.4846 56.1611 39.4913 56.1747 39.4766L72.4004 21.0665C72.4855 20.9627 72.5344 20.8339 72.5396 20.6998C72.5396 20.6874 72.5532 20.6783 72.5532 20.6647ZM59.8576 13.0963L62.8422 20.057H48.5972L51.5841 13.0963H59.8576ZM62.8332 21.2725L55.7175 37.5537L48.6063 21.2725H62.8332ZM47.2752 21.2725L53.5998 35.7518L40.8409 21.2725H47.2752ZM64.1642 21.2725H70.5974L57.8373 35.7496L64.1642 21.2725ZM71.0275 20.057H64.1664L61.1819 13.0963H68.0814L71.0275 20.057ZM43.358 13.0963H50.2621L47.2752 20.057H40.4119L43.358 13.0963Z" fill="white"/>
</g>
<path d="M2.84137 77.275V71.4983H1.05751V70.3892H5.86375V71.4983H4.10762V77.275H2.84137ZM10.6674 77.3859C10.1621 77.3859 9.69074 77.2966 9.25324 77.1179C8.81575 76.9392 8.43372 76.6896 8.10714 76.3692C7.78056 76.0488 7.52485 75.6729 7.33999 75.2416C7.1613 74.8041 7.07195 74.3327 7.07195 73.8275C7.07195 73.316 7.1613 72.8447 7.33999 72.4133C7.51869 71.982 7.77132 71.6061 8.0979 71.2857C8.42448 70.9653 8.80651 70.7188 9.244 70.5463C9.68149 70.3676 10.156 70.2783 10.6674 70.2783C11.1788 70.2783 11.6533 70.3676 12.0908 70.5463C12.5283 70.725 12.9103 70.9745 13.2369 71.295C13.5635 71.6092 13.8161 71.982 13.9948 72.4133C14.1796 72.8447 14.2721 73.316 14.2721 73.8275C14.2721 74.3327 14.1796 74.8041 13.9948 75.2416C13.8099 75.6729 13.5542 76.0488 13.2276 76.3692C12.9011 76.6896 12.519 76.9392 12.0815 77.1179C11.6502 77.2966 11.1788 77.3859 10.6674 77.3859ZM10.6674 76.2398C11.0063 76.2398 11.3175 76.1813 11.6009 76.0642C11.8844 75.941 12.1308 75.7715 12.3403 75.5559C12.556 75.3402 12.7193 75.0845 12.8302 74.7887C12.9473 74.493 13.0058 74.1725 13.0058 73.8275C13.0058 73.4824 12.9473 73.1651 12.8302 72.8755C12.7193 72.5797 12.556 72.324 12.3403 72.1083C12.1308 71.8865 11.8844 71.717 11.6009 71.6C11.3175 71.4829 11.0063 71.4244 10.6674 71.4244C10.3346 71.4244 10.0266 71.4829 9.74311 71.6C9.45967 71.717 9.21011 71.8865 8.99445 72.1083C8.78494 72.324 8.62166 72.5797 8.50458 72.8755C8.38751 73.1651 8.32897 73.4824 8.32897 73.8275C8.32897 74.1725 8.38751 74.493 8.50458 74.7887C8.62166 75.0845 8.78494 75.3402 8.99445 75.5559C9.21011 75.7715 9.45967 75.941 9.74311 76.0642C10.0266 76.1813 10.3346 76.2398 10.6674 76.2398ZM16.3141 77.275V70.3892H18.8836C19.3519 70.3892 19.7647 70.4754 20.1221 70.648C20.4856 70.8143 20.7691 71.0608 20.9724 71.3874C21.1758 71.7078 21.2774 72.0991 21.2774 72.5612C21.2774 73.0172 21.1727 73.4085 20.9632 73.735C20.7598 74.0555 20.4795 74.3019 20.1221 74.4745C19.7647 74.647 19.3519 74.7333 18.8836 74.7333H17.5711V77.275H16.3141ZM17.5711 73.6241H18.902C19.13 73.6241 19.3272 73.581 19.4936 73.4947C19.6599 73.4023 19.7893 73.276 19.8818 73.1158C19.9742 72.9556 20.0204 72.7707 20.0204 72.5612C20.0204 72.3455 19.9742 72.1607 19.8818 72.0066C19.7893 71.8464 19.6599 71.7232 19.4936 71.6369C19.3272 71.5445 19.13 71.4983 18.902 71.4983H17.5711V73.6241ZM25.7987 77.275V70.3892H26.7785L30.568 75.4912L30.0596 75.5928V70.3892H31.3167V77.275H30.3277L26.5936 72.136L27.0558 72.0344V77.275H25.7987ZM36.9659 77.3859C36.4607 77.3859 35.9893 77.2966 35.5518 77.1179C35.1143 76.9392 34.7323 76.6896 34.4057 76.3692C34.0791 76.0488 33.8234 75.6729 33.6385 75.2416C33.4599 74.8041 33.3705 74.3327 33.3705 73.8275C33.3705 73.316 33.4599 72.8447 33.6385 72.4133C33.8172 71.982 34.0699 71.6061 34.3965 71.2857C34.723 70.9653 35.1051 70.7188 35.5426 70.5463C35.9801 70.3676 36.4545 70.2783 36.9659 70.2783C37.4774 70.2783 37.9518 70.3676 38.3893 70.5463C38.8268 70.725 39.2089 70.9745 39.5354 71.295C39.862 71.6092 40.1146 71.982 40.2933 72.4133C40.4782 72.8447 40.5706 73.316 40.5706 73.8275C40.5706 74.3327 40.4782 74.8041 40.2933 75.2416C40.1085 75.6729 39.8528 76.0488 39.5262 76.3692C39.1996 76.6896 38.8176 76.9392 38.3801 77.1179C37.9488 77.2966 37.4774 77.3859 36.9659 77.3859ZM36.9659 76.2398C37.3048 76.2398 37.616 76.1813 37.8995 76.0642C38.1829 75.941 38.4294 75.7715 38.6389 75.5559C38.8546 75.3402 39.0178 75.0845 39.1288 74.7887C39.2458 74.493 39.3044 74.1725 39.3044 73.8275C39.3044 73.4824 39.2458 73.1651 39.1288 72.8755C39.0178 72.5797 38.8546 72.324 38.6389 72.1083C38.4294 71.8865 38.1829 71.717 37.8995 71.6C37.616 71.4829 37.3048 71.4244 36.9659 71.4244C36.6332 71.4244 36.3251 71.4829 36.0417 71.6C35.7582 71.717 35.5087 71.8865 35.293 72.1083C35.0835 72.324 34.9202 72.5797 34.8031 72.8755C34.6861 73.1651 34.6275 73.4824 34.6275 73.8275C34.6275 74.1725 34.6861 74.493 34.8031 74.7887C34.9202 75.0845 35.0835 75.3402 35.293 75.5559C35.5087 75.7715 35.7582 75.941 36.0417 76.0642C36.3251 76.1813 36.6332 76.2398 36.9659 76.2398ZM43.5529 77.275V71.4983H41.769V70.3892H46.5752V71.4983H44.8191V77.275H43.5529ZM51.2218 77.3859C50.7288 77.3859 50.2728 77.2966 49.8538 77.1179C49.441 76.9392 49.0774 76.6896 48.7632 76.3692C48.4551 76.0488 48.2148 75.6729 48.0422 75.2416C47.8697 74.8103 47.7834 74.3389 47.7834 73.8275C47.7834 73.316 47.8666 72.8447 48.033 72.4133C48.2055 71.9758 48.4458 71.6 48.7539 71.2857C49.0682 70.9653 49.4348 70.7188 49.8538 70.5463C50.2728 70.3676 50.7288 70.2783 51.2218 70.2783C51.7147 70.2783 52.1553 70.3614 52.5435 70.5278C52.9378 70.6942 53.2706 70.916 53.5417 71.1933C53.8128 71.4644 54.0069 71.7633 54.124 72.0898L52.9964 72.6167C52.867 72.2716 52.6482 71.9882 52.3401 71.7663C52.032 71.5383 51.6592 71.4244 51.2218 71.4244C50.7904 71.4244 50.4084 71.526 50.0757 71.7294C49.7491 71.9327 49.4934 72.2131 49.3085 72.5705C49.1298 72.9278 49.0405 73.3468 49.0405 73.8275C49.0405 74.3081 49.1298 74.7302 49.3085 75.0937C49.4934 75.4511 49.7491 75.7315 50.0757 75.9348C50.4084 76.1382 50.7904 76.2398 51.2218 76.2398C51.6592 76.2398 52.032 76.1289 52.3401 75.9071C52.6482 75.6791 52.867 75.3926 52.9964 75.0475L54.124 75.5744C54.0069 75.9009 53.8128 76.2029 53.5417 76.4801C53.2706 76.7513 52.9378 76.97 52.5435 77.1364C52.1553 77.3028 51.7147 77.3859 51.2218 77.3859ZM56.0688 77.275V70.3892H57.3258V73.3931H60.2558V70.3892H61.522V77.275H60.2558V74.5022H57.3258V77.275H56.0688ZM69.7308 77.3859C69.2256 77.3859 68.7542 77.2966 68.3167 77.1179C67.8792 76.9392 67.4972 76.6896 67.1706 76.3692C66.844 76.0488 66.5883 75.6729 66.4034 75.2416C66.2247 74.8041 66.1354 74.3327 66.1354 73.8275C66.1354 73.316 66.2247 72.8447 66.4034 72.4133C66.5821 71.982 66.8348 71.6061 67.1613 71.2857C67.4879 70.9653 67.8699 70.7188 68.3074 70.5463C68.7449 70.3676 69.2194 70.2783 69.7308 70.2783C70.2423 70.2783 70.7167 70.3676 71.1542 70.5463C71.5917 70.725 71.9737 70.9745 72.3003 71.295C72.6269 71.6092 72.8795 71.982 73.0582 72.4133C73.2431 72.8447 73.3355 73.316 73.3355 73.8275C73.3355 74.3327 73.2431 74.8041 73.0582 75.2416C72.8734 75.6729 72.6176 76.0488 72.2911 76.3692C71.9645 76.6896 71.5825 76.9392 71.145 77.1179C70.7136 77.2966 70.2423 77.3859 69.7308 77.3859ZM69.7308 76.2398C70.0697 76.2398 70.3809 76.1813 70.6643 76.0642C70.9478 75.941 71.1943 75.7715 71.4038 75.5559C71.6194 75.3402 71.7827 75.0845 71.8936 74.7887C72.0107 74.493 72.0692 74.1725 72.0692 73.8275C72.0692 73.4824 72.0107 73.1651 71.8936 72.8755C71.7827 72.5797 71.6194 72.324 71.4038 72.1083C71.1943 71.8865 70.9478 71.717 70.6643 71.6C70.3809 71.4829 70.0697 71.4244 69.7308 71.4244C69.3981 71.4244 69.09 71.4829 68.8065 71.6C68.5231 71.717 68.2735 71.8865 68.0579 72.1083C67.8484 72.324 67.6851 72.5797 67.568 72.8755C67.4509 73.1651 67.3924 73.4824 67.3924 73.8275C67.3924 74.1725 67.4509 74.493 67.568 74.7887C67.6851 75.0845 67.8484 75.3402 68.0579 75.5559C68.2735 75.7715 68.5231 75.941 68.8065 76.0642C69.09 76.1813 69.3981 76.2398 69.7308 76.2398ZM71.3206 78.1069L69.1763 74.5207H70.4887L72.6608 78.1069H71.3206ZM78.0302 77.3859C77.5003 77.3859 77.0289 77.275 76.616 77.0532C76.2094 76.8314 75.8889 76.5264 75.6548 76.1382C75.4206 75.75 75.3036 75.3094 75.3036 74.8164V70.3892H76.5606V74.7517C76.5606 75.0352 76.6222 75.2909 76.7454 75.5189C76.8748 75.7469 77.0504 75.9256 77.2723 76.055C77.4941 76.1782 77.7467 76.2398 78.0302 76.2398C78.3198 76.2398 78.5724 76.1782 78.7881 76.055C79.0099 75.9256 79.1824 75.7469 79.3057 75.5189C79.4351 75.2909 79.4998 75.0352 79.4998 74.7517V70.3892H80.7568V74.8164C80.7568 75.3094 80.6397 75.75 80.4056 76.1382C80.1714 76.5264 79.8479 76.8314 79.4351 77.0532C79.0284 77.275 78.5601 77.3859 78.0302 77.3859ZM82.1917 77.275L84.567 70.3892H86.1938L88.5692 77.275H87.2012L86.7114 75.7962H84.0495L83.5503 77.275H82.1917ZM84.4099 74.6871H86.3509L85.2048 71.258H85.556L84.4099 74.6871ZM90.2598 77.275V70.3892H91.5168V76.1659H94.4653V77.275H90.2598ZM96.2026 77.275V70.3892H97.4596V77.275H96.2026ZM100.928 77.275V71.4983H99.1446V70.3892H103.951V71.4983H102.195V77.275H100.928ZM107.398 77.275V74.2249L105.078 70.3892H106.511L108.286 73.3838H107.777L109.543 70.3892H110.975L108.665 74.2157V77.275H107.398Z" fill="white"/>
<defs>
<clipPath id="clip0_524_561">
<rect width="35.0863" height="29.4272" fill="white" transform="translate(38.3198 11.3114)"/>
</clipPath>
</defs>
</svg>
