<svg width="53" height="53" viewBox="0 0 53 53" fill="none" xmlns="http://www.w3.org/2000/svg">
<g clip-path="url(#clip0_524_634)">
<mask id="path-1-inside-1_524_634" fill="white">
<path fill-rule="evenodd" clip-rule="evenodd" d="M22.5138 27.8798L14.1768 27.8937L31.7982 8.27264L30.7744 24.2044H39.1184L21.4643 43.7961L22.5138 27.8798Z"/>
</mask>
<path d="M22.5138 27.8798L23.7435 27.9609L23.8302 26.6452L22.5117 26.6474L22.5138 27.8798ZM14.1768 27.8937L13.2599 27.0702L11.4094 29.1306L14.1788 29.126L14.1768 27.8937ZM31.7982 8.27264L33.028 8.35168L33.256 4.80511L30.8813 7.4492L31.7982 8.27264ZM30.7744 24.2044L29.5445 24.1253L29.4602 25.4367H30.7744V24.2044ZM39.1184 24.2044L40.0339 25.0293L41.8878 22.972H39.1184V24.2044ZM21.4643 43.7961L20.2346 43.715L20.0008 47.2612L22.3798 44.621L21.4643 43.7961ZM22.5117 26.6474L14.1747 26.6613L14.1788 29.126L22.5158 29.1122L22.5117 26.6474ZM15.0936 28.7171L32.7151 9.09609L30.8813 7.4492L13.2599 27.0702L15.0936 28.7171ZM30.5684 8.19361L29.5445 24.1253L32.0042 24.2834L33.028 8.35168L30.5684 8.19361ZM30.7744 25.4367H39.1184V22.972H30.7744V25.4367ZM38.2029 23.3794L20.5488 42.9711L22.3798 44.621L40.0339 25.0293L38.2029 23.3794ZM22.694 43.8771L23.7435 27.9609L21.2841 27.7987L20.2346 43.715L22.694 43.8771Z" fill="white" mask="url(#path-1-inside-1_524_634)"/>
</g>
<defs>
<clipPath id="clip0_524_634">
<rect width="24.974" height="35.7387" fill="white" transform="translate(14.1763 8.27264)"/>
</clipPath>
</defs>
</svg>
