<svg width="133" height="79" viewBox="0 0 133 79" fill="none" xmlns="http://www.w3.org/2000/svg">
<g clip-path="url(#clip0_524_553)">
<mask id="path-1-inside-1_524_553" fill="white">
<path fill-rule="evenodd" clip-rule="evenodd" d="M62.5138 27.8799L54.1768 27.8937L71.7982 8.27271L70.7744 24.2044H79.1184L61.4643 43.7961L62.5138 27.8799Z"/>
</mask>
<path d="M62.5138 27.8799L63.7435 27.9609L63.8302 26.6453L62.5117 26.6475L62.5138 27.8799ZM54.1768 27.8937L53.2599 27.0703L51.4094 29.1307L54.1788 29.1261L54.1768 27.8937ZM71.7982 8.27271L73.028 8.35174L73.256 4.80517L70.8813 7.44926L71.7982 8.27271ZM70.7744 24.2044L69.5445 24.1254L69.4602 25.4368H70.7744V24.2044ZM79.1184 24.2044L80.0339 25.0294L81.8878 22.9721H79.1184V24.2044ZM61.4643 43.7961L60.2346 43.715L60.0008 47.2612L62.3798 44.6211L61.4643 43.7961ZM62.5117 26.6475L54.1747 26.6614L54.1788 29.1261L62.5158 29.1122L62.5117 26.6475ZM55.0936 28.7172L72.7151 9.09615L70.8813 7.44926L53.2599 27.0703L55.0936 28.7172ZM70.5684 8.19367L69.5445 24.1254L72.0042 24.2835L73.028 8.35174L70.5684 8.19367ZM70.7744 25.4368H79.1184V22.9721H70.7744V25.4368ZM78.2029 23.3795L60.5488 42.9711L62.3798 44.6211L80.0339 25.0294L78.2029 23.3795ZM62.694 43.8772L63.7435 27.9609L61.2841 27.7988L60.2346 43.715L62.694 43.8772Z" fill="white" mask="url(#path-1-inside-1_524_553)"/>
</g>
<path d="M0.722272 77.275V70.3892H1.97929V76.1659H4.92773V77.275H0.722272ZM6.66508 77.275V70.3892H7.9221V77.275H6.66508ZM13.4335 77.3859C12.9406 77.3859 12.4846 77.2966 12.0656 77.1179C11.6466 76.9392 11.28 76.6896 10.9657 76.3692C10.6515 76.0488 10.405 75.6729 10.2263 75.2416C10.0538 74.8103 9.96749 74.3389 9.96749 73.8275C9.96749 73.316 10.0507 72.8447 10.217 72.4133C10.3896 71.9758 10.6299 71.6 10.938 71.2857C11.2522 70.9653 11.6189 70.7188 12.0379 70.5463C12.4569 70.3676 12.9129 70.2783 13.4058 70.2783C13.8987 70.2783 14.3393 70.3614 14.7275 70.5278C15.1219 70.6942 15.4546 70.916 15.7257 71.1933C15.9969 71.4644 16.191 71.7633 16.308 72.0898L15.1897 72.6259C15.0603 72.2685 14.8415 71.9789 14.5334 71.7571C14.2253 71.5353 13.8495 71.4244 13.4058 71.4244C12.9745 71.4244 12.5924 71.526 12.2597 71.7294C11.9331 71.9327 11.6774 72.2131 11.4925 72.5705C11.3139 72.9278 11.2245 73.3468 11.2245 73.8275C11.2245 74.3081 11.3169 74.7302 11.5018 75.0937C11.6928 75.4511 11.9547 75.7315 12.2874 75.9348C12.6202 76.1382 13.0022 76.2398 13.4335 76.2398C13.7848 76.2398 14.1083 76.1721 14.404 76.0365C14.6998 75.8948 14.937 75.6976 15.1157 75.445C15.2944 75.1862 15.3838 74.8811 15.3838 74.5299V74.0031L15.9568 74.5022H13.4058V73.4393H16.6408V74.1325C16.6408 74.6624 16.5514 75.1307 16.3727 75.5374C16.194 75.9441 15.9506 76.286 15.6426 76.5633C15.3406 76.8345 14.9986 77.0409 14.6166 77.1826C14.2346 77.3182 13.8402 77.3859 13.4335 77.3859ZM18.5597 77.275V70.3892H19.8167V73.3931H22.7467V70.3892H24.013V77.275H22.7467V74.5022H19.8167V77.275H18.5597ZM27.4827 77.275V71.4983H25.6988V70.3892H30.5051V71.4983H28.7489V77.275H27.4827ZM32.1964 77.275V70.3892H33.4534V77.275H32.1964ZM35.7022 77.275V70.3892H36.6819L40.4714 75.4912L39.9631 75.5928V70.3892H41.2201V77.275H40.2311L36.497 72.136L36.9592 72.0344V77.275H35.7022ZM46.74 77.3859C46.247 77.3859 45.7911 77.2966 45.3721 77.1179C44.953 76.9392 44.5864 76.6896 44.2722 76.3692C43.9579 76.0488 43.7114 75.6729 43.5327 75.2416C43.3602 74.8103 43.2739 74.3389 43.2739 73.8275C43.2739 73.316 43.3571 72.8447 43.5235 72.4133C43.696 71.9758 43.9363 71.6 44.2444 71.2857C44.5587 70.9653 44.9253 70.7188 45.3443 70.5463C45.7633 70.3676 46.2193 70.2783 46.7123 70.2783C47.2052 70.2783 47.6458 70.3614 48.034 70.5278C48.4283 70.6942 48.7611 70.916 49.0322 71.1933C49.3033 71.4644 49.4974 71.7633 49.6145 72.0898L48.4961 72.6259C48.3667 72.2685 48.148 71.9789 47.8399 71.7571C47.5318 71.5353 47.1559 71.4244 46.7123 71.4244C46.2809 71.4244 45.8989 71.526 45.5661 71.7294C45.2396 71.9327 44.9839 72.2131 44.799 72.5705C44.6203 72.9278 44.531 73.3468 44.531 73.8275C44.531 74.3081 44.6234 74.7302 44.8082 75.0937C44.9993 75.4511 45.2611 75.7315 45.5939 75.9348C45.9266 76.1382 46.3087 76.2398 46.74 76.2398C47.0912 76.2398 47.4147 76.1721 47.7105 76.0365C48.0062 75.8948 48.2435 75.6976 48.4222 75.445C48.6009 75.1862 48.6902 74.8811 48.6902 74.5299V74.0031L49.2633 74.5022H46.7123V73.4393H49.9472V74.1325C49.9472 74.6624 49.8579 75.1307 49.6792 75.5374C49.5005 75.9441 49.2571 76.286 48.949 76.5633C48.6471 76.8345 48.3051 77.0409 47.9231 77.1826C47.541 77.3182 47.1467 77.3859 46.74 77.3859ZM54.4332 77.275V70.3892H59.0269V71.4983H55.6902V73.4023H58.6109V74.5114H55.6902V77.275H54.4332ZM59.749 77.275L62.1244 70.3892H63.7511L66.1265 77.275H64.7586L64.2687 75.7962H61.6068L61.1077 77.275H59.749ZM61.9673 74.6871H63.9083L62.7622 71.258H63.1134L61.9673 74.6871ZM70.1855 77.3859C69.748 77.3859 69.3413 77.3058 68.9654 77.1456C68.5957 76.9854 68.2753 76.7636 68.0042 76.4801C67.7392 76.1905 67.5451 75.8547 67.4219 75.4727L68.4663 75.0198C68.6327 75.4141 68.873 75.7253 69.1873 75.9533C69.5015 76.1751 69.8558 76.286 70.2502 76.286C70.472 76.286 70.663 76.2522 70.8232 76.1844C70.9896 76.1104 71.1159 76.0118 71.2022 75.8886C71.2946 75.7654 71.3408 75.6175 71.3408 75.445C71.3408 75.2416 71.2792 75.0752 71.156 74.9458C71.0389 74.8103 70.8602 74.7055 70.6199 74.6316L69.2982 74.2064C68.7621 74.0401 68.3585 73.7905 68.0874 73.4578C67.8163 73.125 67.6807 72.7337 67.6807 72.2839C67.6807 71.8896 67.7762 71.5414 67.9672 71.2395C68.1644 70.9376 68.4355 70.7034 68.7806 70.537C69.1318 70.3645 69.5323 70.2783 69.9821 70.2783C70.395 70.2783 70.7739 70.3522 71.119 70.5001C71.4641 70.6418 71.7598 70.8421 72.0063 71.1009C72.2589 71.3535 72.4469 71.6523 72.5701 71.9974L71.5349 72.4595C71.3994 72.1145 71.196 71.8495 70.9249 71.6647C70.6538 71.4736 70.3395 71.3781 69.9821 71.3781C69.7726 71.3781 69.5878 71.4151 69.4276 71.4891C69.2674 71.5568 69.141 71.6554 69.0486 71.7848C68.9624 71.9081 68.9192 72.0559 68.9192 72.2285C68.9192 72.4195 68.9808 72.5889 69.1041 72.7368C69.2273 72.8785 69.4152 72.9895 69.6679 73.0696L70.9341 73.467C71.4825 73.6457 71.8923 73.8922 72.1634 74.2064C72.4407 74.5207 72.5794 74.9089 72.5794 75.371C72.5794 75.7654 72.4777 76.1135 72.2743 76.4154C72.071 76.7174 71.7906 76.9546 71.4333 77.1271C71.0759 77.2997 70.6599 77.3859 70.1855 77.3859ZM75.8556 77.275V71.4983H74.0717V70.3892H78.8779V71.4983H77.1218V77.275H75.8556ZM83.1363 77.275V70.3892H85.3823C86.1094 70.3892 86.741 70.537 87.2771 70.8328C87.8193 71.1224 88.2383 71.526 88.5341 72.0436C88.8299 72.5551 88.9778 73.1497 88.9778 73.8275C88.9778 74.4991 88.8299 75.0968 88.5341 75.6206C88.2383 76.1382 87.8193 76.5448 87.2771 76.8406C86.741 77.1302 86.1094 77.275 85.3823 77.275H83.1363ZM84.3933 76.1659H85.41C85.8783 76.1659 86.2819 76.0704 86.6209 75.8794C86.9659 75.6822 87.234 75.4111 87.425 75.066C87.616 74.7148 87.7115 74.3019 87.7115 73.8275C87.7115 73.3468 87.616 72.934 87.425 72.5889C87.234 72.2439 86.9659 71.9758 86.6209 71.7848C86.2819 71.5938 85.8783 71.4983 85.41 71.4983H84.3933V76.1659ZM90.9024 77.275V70.3892H95.4776V71.4983H92.1594V73.2637H95.2927V74.3728H92.1594V76.1659H95.4776V77.275H90.9024ZM97.3236 77.275V70.3892H98.5806V76.1659H101.529V77.275H97.3236ZM103.266 77.275V70.3892H104.523V77.275H103.266ZM108.611 77.275L106.208 70.3892H107.576L109.462 76.092H109.194L111.079 70.3892H112.447L110.053 77.275H108.611ZM114.141 77.275V70.3892H118.716V71.4983H115.398V73.2637H118.531V74.3728H115.398V76.1659H118.716V77.275H114.141ZM120.562 77.275V70.3892H123.123C123.591 70.3892 124.004 70.4754 124.361 70.648C124.725 70.8143 125.008 71.0608 125.211 71.3874C125.415 71.7078 125.516 72.0991 125.516 72.5612C125.516 73.0357 125.402 73.4393 125.174 73.772C124.953 74.1048 124.651 74.3512 124.269 74.5114L125.849 77.275H124.426L122.734 74.2526L123.548 74.7333H121.819V77.275H120.562ZM121.819 73.6241H123.141C123.369 73.6241 123.566 73.581 123.733 73.4947C123.899 73.4023 124.028 73.276 124.121 73.1158C124.213 72.9556 124.259 72.7707 124.259 72.5612C124.259 72.3455 124.213 72.1607 124.121 72.0066C124.028 71.8464 123.899 71.7232 123.733 71.6369C123.566 71.5445 123.369 71.4983 123.141 71.4983H121.819V73.6241ZM129.263 77.275V74.2249L126.943 70.3892H128.376L130.15 73.3838H129.642L131.407 70.3892H132.84L130.529 74.2157V77.275H129.263Z" fill="white"/>
<defs>
<clipPath id="clip0_524_553">
<rect width="24.974" height="35.7387" fill="white" transform="translate(54.1763 8.27271)"/>
</clipPath>
</defs>
</svg>
