<svg width="52" height="53" viewBox="0 0 52 53" fill="none" xmlns="http://www.w3.org/2000/svg">
<path d="M26.034 12.8557C23.4062 12.8557 20.8374 13.6349 18.6525 15.0948C16.4675 16.5548 14.7646 18.6298 13.7589 21.0576C12.7533 23.4854 12.4902 26.1569 13.0029 28.7342C13.5155 31.3115 14.7809 33.6789 16.6391 35.5371C18.4972 37.3952 20.8647 38.6606 23.442 39.1733C26.0193 39.686 28.6908 39.4228 31.1186 38.4172C33.5463 37.4116 35.6214 35.7086 37.0813 33.5237C38.5413 31.3387 39.3205 28.7699 39.3205 26.1421C39.3205 22.6183 37.9207 19.2389 35.429 16.7472C32.9373 14.2555 29.5578 12.8557 26.034 12.8557ZM26.034 37.9494C23.6988 37.9494 21.416 37.2569 19.4743 35.9595C17.5326 34.6621 16.0192 32.8181 15.1256 30.6606C14.2319 28.5031 13.9981 26.129 14.4537 23.8386C14.9093 21.5483 16.0338 19.4444 17.6851 17.7931C19.3363 16.1419 21.4402 15.0173 23.7306 14.5618C26.0209 14.1062 28.395 14.34 30.5525 15.2337C32.71 16.1273 34.554 17.6407 35.8514 19.5824C37.1488 21.5241 37.8413 23.8069 37.8413 26.1421C37.8366 29.2722 36.5911 32.2727 34.3778 34.4859C32.1646 36.6992 29.1641 37.9447 26.034 37.9494Z" fill="white"/>
<path d="M24.1831 28.4363L21.3486 25.6018L20.0908 26.8507L24.1831 30.9341L32.775 22.3422L31.526 21.0844L24.1831 28.4363Z" fill="white"/>
</svg>
