<svg width="249" height="142" viewBox="0 0 249 142" fill="none" xmlns="http://www.w3.org/2000/svg">
<path d="M30.7403 75.1674C25.6818 75.1674 21.1421 73.9676 17.1212 71.568C13.1652 69.1036 10.0198 65.7961 7.68509 61.6455C5.41523 57.4949 4.2803 52.8255 4.2803 47.6372C4.2803 42.449 5.44766 37.7796 7.78237 33.629C10.1171 29.4784 13.2624 26.2033 17.2185 23.8037C21.1745 21.4042 25.6494 20.2044 30.6431 20.2044C34.8585 20.2044 38.5876 21.0475 41.8302 22.7337C45.0729 24.4198 47.6346 26.7546 49.5153 29.7378L47.8615 32.2671V0.359367H58.7569V74H48.3479V63.2992L49.6126 65.3421C47.7967 68.5199 45.2026 70.9519 41.8302 72.6381C38.4579 74.3243 34.7612 75.1674 30.7403 75.1674ZM31.8104 64.953C34.8585 64.953 37.5823 64.2072 39.9819 62.7156C42.4463 61.2239 44.3595 59.1811 45.7214 56.587C47.1482 53.928 47.8615 50.9447 47.8615 47.6372C47.8615 44.3297 47.1482 41.3789 45.7214 38.7848C44.3595 36.1907 42.4463 34.1478 39.9819 32.6562C37.5823 31.1646 34.8585 30.4188 31.8104 30.4188C28.7623 30.4188 26.0061 31.1646 23.5417 32.6562C21.0772 34.1478 19.1641 36.1907 17.8022 38.7848C16.4402 41.3789 15.7593 44.3297 15.7593 47.6372C15.7593 50.9447 16.4402 53.928 17.8022 56.587C19.1641 59.1811 21.0448 61.2239 23.4444 62.7156C25.9088 64.2072 28.6975 64.953 31.8104 64.953ZM90.4624 75.1674C85.2093 75.1674 80.5399 73.9676 76.4541 71.568C72.4333 69.1036 69.2879 65.7961 67.018 61.6455C64.7482 57.43 63.6132 52.7282 63.6132 47.54C63.6132 42.222 64.7482 37.5202 67.018 33.4344C69.3527 29.3487 72.4657 26.1385 76.3569 23.8037C80.248 21.4042 84.6581 20.2044 89.5869 20.2044C93.5429 20.2044 97.0774 20.8854 100.19 22.2473C103.303 23.6092 105.93 25.4899 108.07 27.8895C110.21 30.2242 111.831 32.9156 112.934 35.9637C114.101 39.0118 114.685 42.2544 114.685 45.6916C114.685 46.5347 114.653 47.4103 114.588 48.3182C114.523 49.2261 114.393 50.0692 114.199 50.8475H72.2711V42.0923H107.973L102.72 46.0808C103.368 42.903 103.141 40.0819 102.039 37.6174C101.001 35.0882 99.3797 33.1102 97.1747 31.6834C95.0345 30.1918 92.5053 29.446 89.5869 29.446C86.6685 29.446 84.0744 30.1918 81.8045 31.6834C79.5347 33.1102 77.7836 35.1855 76.5514 37.9093C75.3192 40.5683 74.8328 43.8109 75.0922 47.6372C74.768 51.2042 75.2544 54.3171 76.5514 56.9761C77.9133 59.6351 79.7941 61.7103 82.1936 63.202C84.658 64.6936 87.4467 65.4394 90.5597 65.4394C93.7375 65.4394 96.4289 64.726 98.6339 63.2992C100.904 61.8725 102.687 60.0242 103.984 57.7543L112.934 62.1319C111.896 64.5963 110.275 66.8337 108.07 68.8442C105.93 70.7898 103.336 72.3462 100.288 73.5136C97.3044 74.6161 94.0293 75.1674 90.4624 75.1674ZM120.841 51.9175V43.6488H157.321V51.9175H120.841ZM31.4213 141.167C26.1682 141.167 21.4988 139.968 17.413 137.568C13.3922 135.104 10.1819 131.796 7.78237 127.645C5.44766 123.495 4.2803 118.793 4.2803 113.54C4.2803 108.352 5.44766 103.682 7.78237 99.5317C10.1171 95.3811 13.3273 92.1385 17.413 89.8037C21.4988 87.4042 26.1682 86.2044 31.4213 86.2044C34.9882 86.2044 38.3282 86.8529 41.4411 88.15C44.554 89.3822 47.2454 91.1008 49.5153 93.3058C51.85 95.5108 53.5686 98.0725 54.6711 100.991L45.0404 105.466C43.9379 102.742 42.1545 100.569 39.6901 98.948C37.2905 97.2618 34.5342 96.4188 31.4213 96.4188C28.4381 96.4188 25.7467 97.1646 23.3471 98.6562C21.0124 100.083 19.1641 102.126 17.8022 104.785C16.4402 107.379 15.7593 110.33 15.7593 113.637C15.7593 116.945 16.4402 119.928 17.8022 122.587C19.1641 125.181 21.0124 127.224 23.3471 128.716C25.7467 130.207 28.4381 130.953 31.4213 130.953C34.5991 130.953 37.3554 130.142 39.6901 128.521C42.0896 126.835 43.8731 124.597 45.0404 121.809L54.6711 126.381C53.6335 129.17 51.9473 131.699 49.6126 133.969C47.3427 136.174 44.6513 137.925 41.5384 139.222C38.4254 140.519 35.0531 141.167 31.4213 141.167ZM84.9684 141.167C79.9098 141.167 75.2729 139.968 71.0574 137.568C66.9068 135.168 63.5993 131.893 61.1349 127.743C58.6705 123.592 57.4383 118.89 57.4383 113.637C57.4383 108.319 58.6705 103.617 61.1349 99.5317C63.5993 95.3811 66.9068 92.1385 71.0574 89.8037C75.208 87.4042 79.845 86.2044 84.9684 86.2044C90.1566 86.2044 94.7936 87.4042 98.8794 89.8037C103.03 92.1385 106.305 95.3811 108.705 99.5317C111.169 103.617 112.401 108.319 112.401 113.637C112.401 118.955 111.169 123.689 108.705 127.84C106.24 131.991 102.933 135.266 98.7821 137.665C94.6315 140 90.0269 141.167 84.9684 141.167ZM84.9684 130.953C88.0813 130.953 90.8376 130.207 93.2371 128.716C95.6367 127.224 97.5174 125.181 98.8794 122.587C100.306 119.928 101.02 116.945 101.02 113.637C101.02 110.33 100.306 107.379 98.8794 104.785C97.5174 102.191 95.6367 100.148 93.2371 98.6562C90.8376 97.1646 88.0813 96.4188 84.9684 96.4188C81.9203 96.4188 79.164 97.1646 76.6996 98.6562C74.3001 100.148 72.3869 102.191 70.9601 104.785C69.5982 107.379 68.9173 110.33 68.9173 113.637C68.9173 116.945 69.5982 119.928 70.9601 122.587C72.3869 125.181 74.3001 127.224 76.6996 128.716C79.164 130.207 81.9203 130.953 84.9684 130.953ZM141.616 141.167C136.558 141.167 132.018 139.968 127.997 137.568C124.041 135.104 120.896 131.796 118.561 127.645C116.291 123.495 115.156 118.825 115.156 113.637C115.156 108.449 116.324 103.78 118.658 99.629C120.993 95.4784 124.138 92.2033 128.094 89.8037C132.05 87.4042 136.525 86.2044 141.519 86.2044C145.734 86.2044 149.463 87.0475 152.706 88.7337C155.949 90.4198 158.51 92.7546 160.391 95.7378L158.737 98.2671V66.3594H169.633V140H159.224V129.299L160.488 131.342C158.673 134.52 156.078 136.952 152.706 138.638C149.334 140.324 145.637 141.167 141.616 141.167ZM142.686 130.953C145.734 130.953 148.458 130.207 150.858 128.716C153.322 127.224 155.235 125.181 156.597 122.587C158.024 119.928 158.737 116.945 158.737 113.637C158.737 110.33 158.024 107.379 156.597 104.785C155.235 102.191 153.322 100.148 150.858 98.6562C148.458 97.1646 145.734 96.4188 142.686 96.4188C139.638 96.4188 136.882 97.1646 134.418 98.6562C131.953 100.148 130.04 102.191 128.678 104.785C127.316 107.379 126.635 110.33 126.635 113.637C126.635 116.945 127.316 119.928 128.678 122.587C130.04 125.181 131.921 127.224 134.32 128.716C136.785 130.207 139.573 130.953 142.686 130.953ZM201.338 141.167C196.085 141.167 191.416 139.968 187.33 137.568C183.309 135.104 180.164 131.796 177.894 127.645C175.624 123.43 174.489 118.728 174.489 113.54C174.489 108.222 175.624 103.52 177.894 99.4344C180.229 95.3487 183.342 92.1385 187.233 89.8037C191.124 87.4042 195.534 86.2044 200.463 86.2044C204.419 86.2044 207.953 86.8854 211.066 88.2473C214.179 89.6092 216.806 91.4899 218.946 93.8895C221.086 96.2242 222.707 98.9156 223.81 101.964C224.977 105.012 225.561 108.254 225.561 111.692C225.561 112.535 225.528 113.41 225.464 114.318C225.399 115.226 225.269 116.069 225.075 116.847H183.147V108.092H218.849L213.596 112.081C214.244 108.903 214.017 106.082 212.915 103.617C211.877 101.088 210.256 99.1102 208.051 97.6834C205.91 96.1918 203.381 95.446 200.463 95.446C197.544 95.446 194.95 96.1918 192.68 97.6834C190.411 99.1102 188.66 101.185 187.427 103.909C186.195 106.568 185.709 109.811 185.968 113.637C185.644 117.204 186.13 120.317 187.427 122.976C188.789 125.635 190.67 127.71 193.07 129.202C195.534 130.694 198.323 131.439 201.436 131.439C204.613 131.439 207.305 130.726 209.51 129.299C211.78 127.872 213.563 126.024 214.86 123.754L223.81 128.132C222.772 130.596 221.151 132.834 218.946 134.844C216.806 136.79 214.212 138.346 211.164 139.514C208.18 140.616 204.905 141.167 201.338 141.167Z" fill="white"/>
<path d="M180.675 65.9976V50.219L168.47 31.424H171.858L182.856 48.1771H181.511L192.463 31.424H195.85L183.692 50.219V65.9976H180.675ZM202.441 65.9976V34.2085H192.789V31.424H215.064V34.2085H205.458V65.9976H202.441Z" fill="#FF0000"/>
<path fill-rule="evenodd" clip-rule="evenodd" d="M145.216 21.929L141.105 14.8682L138.007 20.1116L139.02 21.8992L139.027 21.8861L147.332 36.3238L149.408 36.3238L144.61 28.0708L147.79 26.186L146.909 24.6996L143.742 26.5769L140.026 20.1859L141.108 18.3444L143.727 22.7929L145.216 21.929ZM137.698 20.6681L138.722 22.4355L137.543 24.4422L144.445 36.3144L142.357 36.3144L136.534 26.1593L135.326 28.2152L134.307 26.4415L137.698 20.6681ZM134.014 26.9637L133.153 28.448L129.46 34.814L128.596 36.3036H130.318H137.71H139.432L138.568 34.814L134.875 28.448L134.014 26.9637ZM134.014 29.9323L131.182 34.814H136.846L134.014 29.9323Z" fill="white"/>
</svg>
