<svg width="73" height="72" viewBox="0 0 73 72" fill="none" xmlns="http://www.w3.org/2000/svg">
<g clip-path="url(#clip0_451_398)">
<path d="M24.4957 36.0859C24.0211 38.2564 22.0849 39.8867 19.7741 39.8867C19.158 39.8867 18.6586 40.386 18.6586 41.0022C18.6586 41.6184 19.158 42.1177 19.7741 42.1177C23.3102 42.1177 26.2474 39.5064 26.7597 36.1109C28.9247 35.8768 30.9232 34.9121 32.4704 33.3329C32.9016 32.8928 32.8943 32.1865 32.4542 31.7554C32.0142 31.3246 31.3079 31.3314 30.8767 31.7715C29.5084 33.1681 27.6784 33.9373 25.7236 33.9373C21.7459 33.9373 18.5099 30.7012 18.5099 26.7236C18.5099 26.1073 18.0104 25.608 17.3943 25.608C16.7783 25.608 16.2788 26.1073 16.2788 26.7236C16.2788 31.5151 19.8662 35.4817 24.4957 36.0859Z" fill="#00FFB3"/>
<path d="M29.2189 45.7616C29.2189 45.1454 28.7194 44.6461 28.1033 44.6461C22.8955 44.6461 18.6586 48.883 18.6586 54.0909C18.6586 54.1447 18.6605 54.1987 18.6614 54.2527C18.2466 54.1968 17.8242 54.1652 17.3943 54.1652C16.7783 54.1652 16.2788 54.6645 16.2788 55.2808C16.2788 55.897 16.7783 56.3963 17.3943 56.3963C21.372 56.3963 24.608 59.6323 24.608 63.61C24.608 64.2262 25.1075 64.7255 25.7236 64.7255C26.3396 64.7255 26.8391 64.2262 26.8391 63.61C26.8391 59.652 24.3906 56.2569 20.9296 54.8543C20.9032 54.6016 20.8896 54.346 20.8896 54.0909C20.8896 50.1132 24.1257 46.8772 28.1033 46.8772C28.7194 46.8772 29.2189 46.3779 29.2189 45.7616Z" fill="#00FFB3"/>
<path d="M67.2954 36.2425C67.2954 33.7029 66.281 31.2962 64.488 29.5262C64.7719 28.6177 64.9156 27.678 64.9156 26.7234C64.9156 22.1313 61.6208 18.2962 57.2714 17.4528C57.6038 16.6242 57.7762 15.736 57.7762 14.8245C57.7762 11.9157 56.0088 9.41246 53.4917 8.33056C49.2981 4.99054 44.7115 3 41.1921 3C39.2358 3 37.501 3.96203 36.4326 5.43689C35.3642 3.96203 33.6294 3 31.673 3C28.1536 3 23.5671 4.99054 19.3734 8.33056C16.8564 9.41246 15.0889 11.9157 15.0889 14.8245C15.0889 15.736 15.2613 16.6242 15.5938 17.4528C11.2444 18.2962 7.9496 22.1313 7.9496 26.7234C7.9496 27.678 8.09313 28.6176 8.37722 29.5262C6.58421 31.2962 5.56982 33.7029 5.56982 36.2425C5.56982 38.2279 6.18693 40.0712 7.2376 41.5933C6.14573 43.1717 5.56982 45.0129 5.56982 46.9516C5.56982 50.3856 7.44197 53.5319 10.4061 55.1909C10.3551 55.6151 10.3294 56.0432 10.3294 56.4707C10.3294 61.1029 13.351 65.1984 17.735 66.5941C19.6419 69.8577 23.1155 71.8649 26.9135 71.8649C31.0773 71.8649 34.6878 69.4582 36.4326 65.9639C38.1774 69.4582 41.7878 71.8649 45.9517 71.8649C49.7497 71.8649 53.2233 69.8577 55.1302 66.5941C59.5142 65.1982 62.5358 61.1028 62.5358 56.4707C62.5358 56.0432 62.5101 55.6151 62.459 55.1909C65.4232 53.5319 67.2954 50.3856 67.2954 46.9516C67.2954 45.0129 66.7194 43.1717 65.6276 41.5933C66.6782 40.0712 67.2954 38.2279 67.2954 36.2425ZM26.9135 69.6338C23.7857 69.6338 20.9356 67.9094 19.4753 65.1337C19.3306 64.8586 19.078 64.6565 18.778 64.5758C15.1172 63.5905 12.5604 60.2576 12.5604 56.4707C12.5604 55.904 12.6175 55.3364 12.7301 54.7834C12.8345 54.2707 12.5685 53.7542 12.0903 53.5415C9.48456 52.3831 7.80087 49.7963 7.80087 46.9516C7.80087 45.6577 8.13642 44.421 8.77673 43.3255C10.442 44.7937 12.6253 45.6873 15.0146 45.6873C15.6306 45.6873 16.1301 45.188 16.1301 44.5718C16.1301 43.9556 15.6306 43.4563 15.0146 43.4563C11.0369 43.4563 7.80087 40.2202 7.80087 36.2425C7.80087 34.1013 8.74564 32.0833 10.393 30.7064C10.7649 30.3956 10.8935 29.8802 10.7113 29.4312C10.3591 28.5631 10.1806 27.6521 10.1806 26.7234C10.1806 22.7458 13.4167 19.5097 17.3944 19.5097C21.372 19.5097 24.6081 22.7458 24.6081 26.7234C24.6081 27.3396 25.1075 27.8389 25.7236 27.8389C26.3396 27.8389 26.8391 27.3396 26.8391 26.7234C26.8391 21.7196 22.927 17.6144 18.001 17.3002C17.5545 16.5539 17.32 15.7052 17.32 14.8245C17.32 12.8361 18.5271 11.1247 20.2468 10.3834C20.3133 10.3636 20.3784 10.3378 20.4414 10.305C20.9741 10.1025 21.5511 9.9906 22.1539 9.9906C24.0216 9.9906 25.6889 11.0349 26.5053 12.7162C26.7746 13.2705 27.4421 13.5017 27.9961 13.2323C28.5503 12.9632 28.7814 12.2959 28.5122 11.7417C27.5803 9.82253 25.8164 8.44315 23.7851 7.95455C26.6322 6.21731 29.4351 5.23104 31.673 5.23104C33.6823 5.23104 35.3171 6.86565 35.3171 8.87508V23.3101C34.3147 22.5149 33.0488 22.0382 31.673 22.0382C31.057 22.0382 30.5575 22.5375 30.5575 23.1538C30.5575 23.77 31.057 24.2693 31.673 24.2693C33.6823 24.2693 35.3171 25.9039 35.3171 27.9133V54.7273C33.9301 52.9379 31.9748 51.5874 29.6748 50.9694C29.08 50.8101 28.4679 51.1623 28.308 51.7572C28.1481 52.3523 28.5009 52.9642 29.0959 53.124C32.7588 54.1081 35.3171 57.4415 35.3171 61.2302C35.3171 65.864 31.5472 69.6338 26.9135 69.6338ZM60.7749 53.5416C60.2967 53.7543 60.0306 54.2707 60.135 54.7836C60.2476 55.3366 60.3047 55.9041 60.3047 56.4708C60.3047 60.2578 57.748 63.5907 54.0871 64.5759C53.7871 64.6567 53.5344 64.8588 53.3899 65.1338C51.9296 67.9094 49.0795 69.6338 45.9517 69.6338C41.318 69.6338 37.5481 65.864 37.5481 61.2302C37.5481 60.9165 37.5335 60.6055 37.5063 60.2975C37.5328 60.2022 37.5481 60.1021 37.5481 59.9983V23.1538C37.5481 21.1443 39.1829 19.5097 41.1921 19.5097C41.8082 19.5097 42.3077 19.0104 42.3077 18.3942C42.3077 17.778 41.8082 17.2787 41.1921 17.2787C39.8163 17.2787 38.5504 17.7554 37.5481 18.5505V8.87508C37.5481 6.86565 39.1829 5.23104 41.1921 5.23104C43.43 5.23104 46.233 6.21731 49.0801 7.95455C47.0488 8.443 45.2849 9.82253 44.3529 11.7417C44.0837 12.296 44.3149 12.9634 44.8691 13.2323C45.4232 13.5015 46.0906 13.2705 46.3598 12.7162C47.1762 11.0349 48.8436 9.9906 50.7113 9.9906C51.3141 9.9906 51.8912 10.1025 52.4238 10.305C52.4866 10.3378 52.5517 10.3635 52.6179 10.3833C54.3379 11.1246 55.5452 12.8359 55.5452 14.8245C55.5452 15.7052 55.3106 16.5539 54.8641 17.3002C49.9381 17.6144 46.0261 21.7196 46.0261 26.7234C46.0261 27.3396 46.5255 27.8389 47.1416 27.8389C47.7577 27.8389 48.2571 27.3396 48.2571 26.7234C48.2571 22.7458 51.4932 19.5097 55.4708 19.5097C59.4485 19.5097 62.6845 22.7458 62.6845 26.7234C62.6845 27.6521 62.506 28.5631 62.154 29.4312C61.9718 29.8804 62.1004 30.3956 62.4723 30.7064C64.1195 32.0833 65.0643 34.1013 65.0643 36.2425C65.0643 40.2202 61.8283 43.4563 57.8506 43.4563C57.2345 43.4563 56.7351 43.9556 56.7351 44.5718C56.7351 45.188 57.2345 45.6873 57.8506 45.6873C60.2399 45.6873 62.4232 44.7937 64.0884 43.3255C64.7289 44.421 65.0643 45.6577 65.0643 46.9516C65.0643 49.7963 63.3806 52.3831 60.7749 53.5416Z" fill="#00FFB3"/>
<path d="M55.47 38.6966C53.1593 38.6966 51.223 37.0663 50.7484 34.8958C55.378 34.2917 58.9653 30.325 58.9653 25.5335C58.9653 24.9173 58.4659 24.418 57.8498 24.418C57.2338 24.418 56.7343 24.9173 56.7343 25.5335C56.7343 29.5111 53.4982 32.7472 49.5206 32.7472C47.5658 32.7472 45.7357 31.9781 44.3675 30.5814C43.9364 30.1415 43.2301 30.1342 42.79 30.5654C42.3499 30.9966 42.3426 31.7028 42.7738 32.1429C44.3209 33.722 46.3195 34.6867 48.4845 34.9208C48.9967 38.3163 51.934 40.9277 55.47 40.9277C56.0861 40.9277 56.5856 40.4284 56.5856 39.8122C56.5856 39.196 56.0861 38.6966 55.47 38.6966Z" fill="#00FFB3"/>
<path d="M51.9012 51.7855C51.4713 51.7855 51.0489 51.817 50.6341 51.8729C50.635 51.8189 50.6369 51.765 50.6369 51.7111C50.6369 46.5033 46.4 42.2664 41.1922 42.2664C40.5761 42.2664 40.0767 42.7657 40.0767 43.3819C40.0767 43.9981 40.5761 44.4974 41.1922 44.4974C45.1698 44.4974 48.4059 47.7335 48.4059 51.7111C48.4059 51.966 48.3924 52.2219 48.3659 52.4746C44.9049 53.8772 42.4564 57.2722 42.4564 61.2302C42.4564 61.8464 42.9559 62.3457 43.572 62.3457C44.188 62.3457 44.6875 61.8464 44.6875 61.2302C44.6875 57.2526 47.9235 54.0165 51.9012 54.0165C52.5173 54.0165 53.0167 53.5172 53.0167 52.901C53.0167 52.2848 52.5173 51.7855 51.9012 51.7855Z" fill="#00FFB3"/>
</g>
<defs>
<clipPath id="clip0_451_398">
<rect width="68.8649" height="68.8649" fill="white" transform="translate(2 3)"/>
</clipPath>
</defs>
</svg>
