<svg width="217" height="46" viewBox="0 0 217 46" fill="none" xmlns="http://www.w3.org/2000/svg">
<path d="M19.4107 3.88214C21.8894 3.88214 24.3438 4.37036 26.6339 5.31893C28.9239 6.2675 31.0047 7.65784 32.7574 9.41056C34.5102 11.1633 35.9005 13.2441 36.8491 15.5341C37.7976 17.8242 38.2858 20.2786 38.2858 22.7573C38.2858 25.2361 37.7976 27.6905 36.8491 29.9806C35.9005 32.2706 34.5102 34.3514 32.7574 36.1041C31.0047 37.8568 28.9239 39.2472 26.6339 40.1958C24.3438 41.1443 21.8894 41.6325 19.4106 41.6325L19.4107 3.88214Z" fill="#6123B4"/>
<path d="M20.0193 13.7274C21.3713 13.7274 22.7101 13.9937 23.9592 14.5111C25.2083 15.0285 26.3433 15.7869 27.2994 16.7429C28.2554 17.6989 29.0138 18.8339 29.5312 20.083C30.0486 21.3321 30.3149 22.6709 30.3149 24.023C30.3149 25.375 30.0486 26.7138 29.5312 27.9629C29.0138 29.212 28.2554 30.347 27.2994 31.303C26.3433 32.2591 25.2083 33.0174 23.9592 33.5348C22.7101 34.0522 21.3713 34.3185 20.0193 34.3185L20.0193 13.7274Z" fill="#41167B"/>
<path d="M12.0116 7.4357C14.1899 7.4357 16.3468 7.86474 18.3593 8.69833C20.3717 9.53192 22.2003 10.7537 23.7406 12.294C25.2809 13.8343 26.5027 15.6629 27.3363 17.6753C28.1699 19.6878 28.5989 21.8447 28.5989 24.023C28.5989 26.2013 28.1699 28.3582 27.3363 30.3707C26.5027 32.3831 25.2809 34.2117 23.7406 35.752C22.2003 37.2923 20.3717 38.5141 18.3593 39.3477C16.3468 40.1813 14.1899 40.6103 12.0116 40.6103L12.0116 7.4357Z" fill="#C34AA1"/>
<path d="M10.8678 15.4433C11.9945 15.4433 13.1102 15.6652 14.1511 16.0964C15.192 16.5276 16.1378 17.1596 16.9345 17.9562C17.7312 18.7529 18.3632 19.6988 18.7944 20.7397C19.2255 21.7806 19.4474 22.8963 19.4474 24.023C19.4474 25.1497 19.2255 26.2653 18.7944 27.3063C18.3632 28.3472 17.7312 29.293 16.9345 30.0897C16.1378 30.8864 15.192 31.5184 14.1511 31.9495C13.1102 32.3807 11.9945 32.6026 10.8678 32.6026L10.8678 15.4433Z" fill="#4A0B39"/>
<path d="M6.86402 13.7274C8.21605 13.7274 9.55484 13.9937 10.804 14.5111C12.0531 15.0285 13.1881 15.7869 14.1441 16.7429C15.1001 17.6989 15.8585 18.8339 16.3759 20.083C16.8933 21.3321 17.1596 22.6709 17.1596 24.023C17.1596 25.375 16.8933 26.7138 16.3759 27.9629C15.8585 29.212 15.1001 30.347 14.1441 31.303C13.188 32.2591 12.0531 33.0174 10.804 33.5348C9.55484 34.0522 8.21605 34.3185 6.86401 34.3185L6.86402 13.7274Z" fill="#EBB776"/>
<path d="M47.0266 31.379V14.8583H52.4374C54.108 14.8583 55.5641 15.1984 56.806 15.8784C58.0478 16.5584 59.0087 17.5194 59.6888 18.7612C60.3688 19.9882 60.7088 21.437 60.7088 23.1076C60.7088 24.7634 60.3688 26.2122 59.6888 27.454C59.0087 28.6958 58.0478 29.6641 56.806 30.359C55.5641 31.039 54.108 31.379 52.4374 31.379H47.0266ZM49.1998 29.3832H52.4596C53.6866 29.3832 54.7436 29.1245 55.6307 28.6071C56.5325 28.0897 57.2273 27.3653 57.7152 26.4339C58.203 25.4878 58.4469 24.379 58.4469 23.1076C58.4469 21.8214 58.1956 20.7126 57.693 19.7813C57.2051 18.8499 56.5103 18.1329 55.6085 17.6303C54.7215 17.1128 53.6718 16.8541 52.4596 16.8541H49.1998V29.3832ZM67.6101 31.6451C66.457 31.6451 65.4295 31.3716 64.5277 30.8246C63.6259 30.2776 62.9163 29.5311 62.3988 28.5849C61.8814 27.624 61.6227 26.5522 61.6227 25.3695C61.6227 24.172 61.874 23.1076 62.3767 22.1762C62.8941 21.2449 63.5889 20.5131 64.4612 19.9809C65.3482 19.4339 66.3387 19.1604 67.4327 19.1604C68.3197 19.1604 69.1032 19.323 69.7833 19.6482C70.4781 19.9587 71.0621 20.3874 71.5351 20.9344C72.023 21.4666 72.3926 22.0801 72.6439 22.775C72.91 23.455 73.0431 24.1646 73.0431 24.9038C73.0431 25.0664 73.0283 25.2512 72.9987 25.4582C72.9839 25.6504 72.9617 25.8352 72.9322 26.0126H63.1306V24.2385H71.7347L70.759 25.0369C70.892 24.2681 70.8181 23.5807 70.5372 22.9745C70.2563 22.3684 69.8424 21.8879 69.2954 21.5331C68.7484 21.1783 68.1275 21.0009 67.4327 21.0009C66.7378 21.0009 66.1021 21.1783 65.5256 21.5331C64.949 21.8879 64.4981 22.398 64.1729 23.0632C63.8624 23.7137 63.7368 24.4899 63.7959 25.3917C63.7368 26.2639 63.8698 27.0326 64.1951 27.6979C64.5351 28.3484 65.0082 28.8584 65.6143 29.228C66.2352 29.5828 66.9079 29.7602 67.6322 29.7602C68.4306 29.7602 69.1032 29.5754 69.6502 29.2058C70.1972 28.8362 70.6407 28.3632 70.9807 27.7866L72.7104 28.6736C72.4739 29.2206 72.1043 29.7233 71.6017 30.1816C71.1138 30.6251 70.5298 30.9799 69.8498 31.246C69.1845 31.5121 68.438 31.6451 67.6101 31.6451ZM78.9031 31.6451C77.7056 31.6451 76.6634 31.3495 75.7763 30.7581C74.8893 30.1668 74.261 29.3685 73.8914 28.3632L75.5324 27.5649C75.8724 28.2745 76.3381 28.8362 76.9295 29.2502C77.5208 29.6641 78.1787 29.8711 78.9031 29.8711C79.5536 29.8711 80.0932 29.7159 80.5219 29.4054C80.9506 29.095 81.165 28.6884 81.165 28.1858C81.165 27.831 81.0615 27.5501 80.8545 27.3431C80.6623 27.1213 80.4258 26.9513 80.1449 26.8331C79.864 26.7 79.6053 26.6039 79.3688 26.5448L77.5726 26.0347C76.4934 25.7243 75.7024 25.2808 75.1998 24.7042C74.7119 24.1277 74.468 23.455 74.468 22.6863C74.468 21.9766 74.6454 21.3631 75.0002 20.8457C75.3698 20.3135 75.8651 19.8995 76.486 19.6039C77.1217 19.3082 77.8313 19.1604 78.6148 19.1604C79.6644 19.1604 80.6032 19.4265 81.4311 19.9587C82.2738 20.4909 82.8725 21.2375 83.2273 22.1984L81.542 22.9745C81.2759 22.3536 80.8767 21.8658 80.3445 21.511C79.8123 21.1414 79.2135 20.9566 78.5483 20.9566C77.9422 20.9566 77.4617 21.1118 77.1069 21.4223C76.7521 21.7179 76.5747 22.0949 76.5747 22.5532C76.5747 22.8932 76.6634 23.1741 76.8408 23.3959C77.0182 23.6028 77.2325 23.7655 77.4839 23.8837C77.7352 23.9872 77.9791 24.0759 78.2156 24.1498L80.1671 24.7264C81.1428 25.0073 81.8968 25.4434 82.429 26.0347C82.976 26.6261 83.2495 27.3357 83.2495 28.1636C83.2495 28.8289 83.0647 29.4276 82.6951 29.9598C82.3255 30.492 81.8155 30.906 81.165 31.2016C80.5145 31.4973 79.7605 31.6451 78.9031 31.6451ZM84.8404 31.379V19.4265H86.9027V31.379H84.8404ZM84.8404 17.5194V14.8583H86.9027V17.5194H84.8404ZM94.693 36.2576C93.8504 36.2576 93.0668 36.1246 92.3424 35.8585C91.6328 35.5924 91.0193 35.2228 90.5019 34.7497C89.9992 34.2914 89.6149 33.7518 89.3488 33.1309L91.278 32.2439C91.485 32.8056 91.8768 33.2787 92.4533 33.6631C93.0447 34.0623 93.7838 34.2618 94.6709 34.2618C95.3509 34.2618 95.9644 34.1288 96.5114 33.8627C97.0732 33.6114 97.5167 33.227 97.8419 32.7096C98.1672 32.2069 98.3298 31.5934 98.3298 30.869V28.1858L98.7068 28.5849C98.2928 29.398 97.6941 30.0189 96.9106 30.4477C96.1418 30.8764 95.2918 31.0907 94.3604 31.0907C93.2368 31.0907 92.2316 30.832 91.3445 30.3146C90.4575 29.7824 89.7627 29.0654 89.2601 28.1636C88.7574 27.247 88.5061 26.2343 88.5061 25.1256C88.5061 24.002 88.7574 22.9893 89.2601 22.0875C89.7627 21.1857 90.4501 20.4761 91.3224 19.9587C92.2094 19.4265 93.2147 19.1604 94.3382 19.1604C95.2696 19.1604 96.1123 19.3747 96.8662 19.8035C97.635 20.2174 98.2485 20.794 98.7068 21.5331L98.3963 22.0875V19.4265H100.414V30.869C100.414 31.9038 100.17 32.8278 99.6825 33.6409C99.1946 34.454 98.5146 35.0897 97.6424 35.548C96.7849 36.0211 95.8018 36.2576 94.693 36.2576ZM94.5378 29.095C95.2474 29.095 95.8831 28.9176 96.4449 28.5627C97.0215 28.2079 97.4797 27.7349 97.8198 27.1435C98.1598 26.5374 98.3298 25.8647 98.3298 25.1256C98.3298 24.4012 98.1598 23.7359 97.8198 23.1298C97.4797 22.5236 97.0215 22.0432 96.4449 21.6884C95.8831 21.3336 95.2474 21.1562 94.5378 21.1562C93.8134 21.1562 93.1555 21.3336 92.5642 21.6884C91.9728 22.0432 91.5072 22.5236 91.1671 23.1298C90.8419 23.7211 90.6793 24.3864 90.6793 25.1256C90.6793 25.8647 90.8419 26.5374 91.1671 27.1435C91.5072 27.7349 91.9655 28.2079 92.542 28.5627C93.1334 28.9176 93.7986 29.095 94.5378 29.095ZM102.503 31.379V19.4265H104.521V21.7549L104.188 21.5553C104.484 20.8013 104.957 20.2174 105.607 19.8035C106.273 19.3747 107.049 19.1604 107.936 19.1604C108.793 19.1604 109.555 19.3526 110.22 19.7369C110.9 20.1213 111.432 20.6535 111.816 21.3336C112.216 22.0136 112.415 22.7824 112.415 23.6398V31.379H110.331V24.3051C110.331 23.6398 110.212 23.078 109.976 22.6197C109.739 22.1614 109.399 21.8066 108.956 21.5553C108.527 21.2892 108.032 21.1562 107.47 21.1562C106.908 21.1562 106.406 21.2892 105.962 21.5553C105.533 21.8066 105.193 22.1688 104.942 22.6419C104.691 23.1002 104.565 23.6546 104.565 24.3051V31.379H102.503ZM120.109 31.379V16.8541H115.629V14.8583H126.717V16.8541H122.304V31.379H120.109ZM127.459 31.379V14.5922H129.521V21.7549L129.144 21.5553C129.44 20.8013 129.913 20.2174 130.563 19.8035C131.229 19.3747 132.005 19.1604 132.892 19.1604C133.749 19.1604 134.511 19.3526 135.176 19.7369C135.856 20.1213 136.388 20.6535 136.772 21.3336C137.172 22.0136 137.371 22.7824 137.371 23.6398V31.379H135.287V24.3051C135.287 23.6398 135.161 23.078 134.91 22.6197C134.673 22.1614 134.341 21.8066 133.912 21.5553C133.483 21.2892 132.988 21.1562 132.426 21.1562C131.879 21.1562 131.384 21.2892 130.94 21.5553C130.497 21.8066 130.149 22.1688 129.898 22.6419C129.647 23.1002 129.521 23.6546 129.521 24.3051V31.379H127.459ZM144.713 31.6451C143.56 31.6451 142.532 31.3716 141.631 30.8246C140.729 30.2776 140.019 29.5311 139.502 28.5849C138.984 27.624 138.726 26.5522 138.726 25.3695C138.726 24.172 138.977 23.1076 139.48 22.1762C139.997 21.2449 140.692 20.5131 141.564 19.9809C142.451 19.4339 143.442 19.1604 144.536 19.1604C145.423 19.1604 146.206 19.323 146.886 19.6482C147.581 19.9587 148.165 20.3874 148.638 20.9344C149.126 21.4666 149.496 22.0801 149.747 22.775C150.013 23.455 150.146 24.1646 150.146 24.9038C150.146 25.0664 150.131 25.2512 150.102 25.4582C150.087 25.6504 150.065 25.8352 150.035 26.0126H140.234V24.2385H148.838L147.862 25.0369C147.995 24.2681 147.921 23.5807 147.64 22.9745C147.359 22.3684 146.945 21.8879 146.398 21.5331C145.851 21.1783 145.23 21.0009 144.536 21.0009C143.841 21.0009 143.205 21.1783 142.629 21.5331C142.052 21.8879 141.601 22.398 141.276 23.0632C140.965 23.7137 140.84 24.4899 140.899 25.3917C140.84 26.2639 140.973 27.0326 141.298 27.6979C141.638 28.3484 142.111 28.8584 142.717 29.228C143.338 29.5828 144.011 29.7602 144.735 29.7602C145.534 29.7602 146.206 29.5754 146.753 29.2058C147.3 28.8362 147.744 28.3632 148.084 27.7866L149.813 28.6736C149.577 29.2206 149.207 29.7233 148.705 30.1816C148.217 30.6251 147.633 30.9799 146.953 31.246C146.287 31.5121 145.541 31.6451 144.713 31.6451ZM154.694 31.379V14.8583H165.161V16.8541H156.868V22.1984H164.385V24.1942H156.868V31.379H154.694ZM170.289 31.6451C169.432 31.6451 168.655 31.4456 167.961 31.0464C167.281 30.6472 166.748 30.0929 166.364 29.3832C165.994 28.6588 165.81 27.831 165.81 26.8996V19.4265H167.872V26.6778C167.872 27.2692 167.99 27.7866 168.227 28.2301C168.478 28.6736 168.818 29.021 169.247 29.2724C169.69 29.5237 170.193 29.6493 170.755 29.6493C171.317 29.6493 171.812 29.5237 172.241 29.2724C172.684 29.021 173.024 28.6588 173.261 28.1858C173.512 27.7127 173.638 27.1509 173.638 26.5004V19.4265H175.722V31.379H173.704V29.0506L174.037 29.2502C173.756 30.0042 173.275 30.5955 172.595 31.0242C171.93 31.4382 171.161 31.6451 170.289 31.6451ZM182.665 31.5121C181.497 31.5121 180.595 31.1794 179.959 30.5142C179.338 29.8489 179.028 28.9102 179.028 27.6979V21.4001H176.855V19.4265H177.298C177.83 19.4265 178.252 19.2638 178.562 18.9386C178.873 18.6134 179.028 18.1846 179.028 17.6524V16.6767H181.09V19.4265H183.773V21.4001H181.09V27.6314C181.09 28.0305 181.149 28.378 181.268 28.6736C181.401 28.9693 181.615 29.2058 181.911 29.3832C182.206 29.5459 182.598 29.6272 183.086 29.6272C183.19 29.6272 183.315 29.6198 183.463 29.605C183.626 29.5902 183.773 29.5754 183.907 29.5606V31.379C183.714 31.4234 183.5 31.4529 183.263 31.4677C183.027 31.4973 182.827 31.5121 182.665 31.5121ZM189.727 31.6451C188.87 31.6451 188.094 31.4456 187.399 31.0464C186.719 30.6472 186.187 30.0929 185.802 29.3832C185.433 28.6588 185.248 27.831 185.248 26.8996V19.4265H187.31V26.6778C187.31 27.2692 187.428 27.7866 187.665 28.2301C187.916 28.6736 188.256 29.021 188.685 29.2724C189.128 29.5237 189.631 29.6493 190.193 29.6493C190.755 29.6493 191.25 29.5237 191.679 29.2724C192.122 29.021 192.462 28.6588 192.699 28.1858C192.95 27.7127 193.076 27.1509 193.076 26.5004V19.4265H195.16V31.379H193.142V29.0506L193.475 29.2502C193.194 30.0042 192.714 30.5955 192.033 31.0242C191.368 31.4382 190.599 31.6451 189.727 31.6451ZM197.246 31.379V19.4265H199.264V21.6218L199.043 21.3114C199.324 20.6313 199.752 20.1287 200.329 19.8035C200.905 19.4634 201.608 19.2934 202.435 19.2934H203.167V21.2449H202.125C201.282 21.2449 200.602 21.511 200.085 22.0432C199.567 22.5606 199.309 23.2998 199.309 24.2607V31.379H197.246ZM209.39 31.6451C208.237 31.6451 207.209 31.3716 206.308 30.8246C205.406 30.2776 204.696 29.5311 204.179 28.5849C203.661 27.624 203.403 26.5522 203.403 25.3695C203.403 24.172 203.654 23.1076 204.157 22.1762C204.674 21.2449 205.369 20.5131 206.241 19.9809C207.128 19.4339 208.119 19.1604 209.213 19.1604C210.1 19.1604 210.883 19.323 211.563 19.6482C212.258 19.9587 212.842 20.3874 213.315 20.9344C213.803 21.4666 214.172 22.0801 214.424 22.775C214.69 23.455 214.823 24.1646 214.823 24.9038C214.823 25.0664 214.808 25.2512 214.779 25.4582C214.764 25.6504 214.742 25.8352 214.712 26.0126H204.91V24.2385H213.515L212.539 25.0369C212.672 24.2681 212.598 23.5807 212.317 22.9745C212.036 22.3684 211.622 21.8879 211.075 21.5331C210.528 21.1783 209.907 21.0009 209.213 21.0009C208.518 21.0009 207.882 21.1783 207.305 21.5331C206.729 21.8879 206.278 22.398 205.953 23.0632C205.642 23.7137 205.517 24.4899 205.576 25.3917C205.517 26.2639 205.65 27.0326 205.975 27.6979C206.315 28.3484 206.788 28.8584 207.394 29.228C208.015 29.5828 208.688 29.7602 209.412 29.7602C210.21 29.7602 210.883 29.5754 211.43 29.2058C211.977 28.8362 212.421 28.3632 212.761 27.7866L214.49 28.6736C214.254 29.2206 213.884 29.7233 213.381 30.1816C212.894 30.6251 212.31 30.9799 211.63 31.246C210.964 31.5121 210.218 31.6451 209.39 31.6451Z" fill="black"/>
</svg>
