<svg width="40" height="40" viewBox="0 0 40 40" fill="none" xmlns="http://www.w3.org/2000/svg">
<path d="M19.9998 9.0127C26.0648 9.0127 30.9871 13.935 30.9871 20C30.9871 26.0759 26.0648 30.9872 19.9998 30.9872C13.9239 30.9872 9.01257 26.0759 9.01257 20C9.01257 13.935 13.9239 9.0127 19.9998 9.0127ZM24.2299 16.3851C24.3508 16.0006 23.9992 15.638 23.6146 15.7589L17.9892 17.5168C17.7584 17.5937 17.5716 17.7695 17.5057 18.0003L15.7478 23.6367C15.6269 24.0103 15.9895 24.3729 16.3631 24.252L21.9666 22.4941C22.1973 22.4281 22.3841 22.2414 22.45 22.0106L24.2299 16.3851Z" fill="#191919"/>
</svg>
