<svg width="40" height="40" viewBox="0 0 40 40" fill="none" xmlns="http://www.w3.org/2000/svg">
<path d="M16.8521 29.6395V26.2799C16.8521 25.4222 17.5524 24.727 18.4163 24.727H21.5742C21.9891 24.727 22.3869 24.8906 22.6803 25.1818C22.9736 25.473 23.1384 25.868 23.1384 26.2799V29.6395C23.1358 29.996 23.2766 30.3388 23.5297 30.5919C23.7827 30.8449 24.127 30.9872 24.4862 30.9872H26.6407C27.6469 30.9898 28.6128 30.5948 29.3252 29.8894C30.0377 29.184 30.4381 28.2261 30.4381 27.2272V17.6562C30.4381 16.8493 30.0777 16.0839 29.4543 15.5662L22.1251 9.75529C20.8502 8.73643 19.0235 8.76933 17.7866 9.83342L10.6247 15.5662C9.9718 16.0687 9.58154 16.8363 9.56226 17.6562V27.2174C9.56226 29.2994 11.2624 30.9872 13.3596 30.9872H15.4649C16.2109 30.9872 16.8171 30.3897 16.8225 29.6492L16.8521 29.6395Z" fill="#191919"/>
</svg>
