<svg width="240" height="60" viewBox="0 0 240 60" fill="none" xmlns="http://www.w3.org/2000/svg">
<path d="M13.9938 15.0292C11.3556 15.2989 8.91958 16.1591 6.85253 17.5536C4.83092 18.9125 3.24903 20.6023 2.02091 22.6941C1.10109 24.2718 0.428911 26.1906 0.140832 28.0839C-0.0107872 29.0408 -0.0461649 30.9952 0.0650227 31.9469C0.105454 32.3235 0.155994 32.6747 0.17621 32.7205C0.206534 32.802 1.22744 32.807 15.3836 32.807H30.5557L30.6163 32.3744C30.8488 30.7 30.7629 28.7507 30.3889 27.066C29.7521 24.1955 28.3471 21.6202 26.2952 19.5538C23.7884 17.0345 20.5539 15.4618 17.0717 15.0699C16.4601 15.0037 14.5144 14.9732 13.9938 15.0292ZM16.2681 20.0577C18.1532 20.1646 20.3113 21.0298 21.9033 22.3174C23.0606 23.2488 23.9451 24.3482 24.6324 25.7071C24.9458 26.323 25.2844 27.2085 25.3855 27.6768L25.4158 27.8193H5.30095L5.33126 27.6768C5.49298 26.9235 6.12981 25.4883 6.66554 24.6892C8.21708 22.3531 10.5925 20.7549 13.3115 20.2104C13.9635 20.0831 15.0754 19.9813 15.51 20.0119C15.6363 20.0221 15.9749 20.0424 16.2681 20.0577Z" fill="#353535"/>
<path d="M22.6098 37.6473C20.5174 39.7798 17.5305 40.9097 14.5386 40.6959C12.9364 40.5788 11.5163 40.1412 10.1113 39.337C9.2976 38.8636 8.86297 38.5278 8.09476 37.7745L7.57421 37.2655L7.46302 37.3673C7.39731 37.4284 6.58362 38.146 5.65367 38.9655C4.72374 39.7849 3.93027 40.4822 3.89996 40.5127C3.7736 40.6297 5.01183 41.8462 6.08833 42.6707C6.70491 43.1389 7.60452 43.7039 8.32724 44.0754C10.7481 45.3172 13.3256 45.8619 16.08 45.7244C19.825 45.5362 23.4285 43.9176 26.1375 41.1998C26.4609 40.869 26.7288 40.5839 26.7288 40.5585C26.7288 40.5228 23.1202 37.2808 23.0444 37.2452C23.0293 37.2401 22.8321 37.4182 22.6098 37.6473Z" fill="#353535"/>
<path d="M47.0736 40.9276C50.5739 40.9276 53.3741 39.1138 54.4242 36.6636L51.4967 35.2317C50.6375 36.6954 49.1738 37.7455 47.1054 37.7455C44.4006 37.7455 42.2687 35.8681 42.0459 32.9724H54.8379C54.9652 32.4633 54.997 31.8269 54.997 31.2859C54.997 26.831 51.974 22.9489 46.7872 22.9489C41.9505 22.9489 38.2911 26.7355 38.2911 31.8905C38.2911 36.9818 41.9186 40.9276 47.0736 40.9276ZM46.7872 25.9718C49.2056 25.9718 51.0512 27.6583 51.1785 30.1085H42.1096C42.555 27.4992 44.4643 25.9718 46.7872 25.9718Z" fill="#353535"/>
<path d="M64.7113 40.9276C67.066 40.9276 69.198 40.0048 70.4708 38.3183V40.5457H73.8756V16.4574H70.3117V25.3354C69.0071 23.8398 67.066 22.9489 64.6794 22.9489C59.779 22.9489 56.056 26.831 56.056 31.9223C56.056 37.0136 59.7472 40.9276 64.7113 40.9276ZM65.0613 37.5864C62.0065 37.5864 59.8109 35.1999 59.8109 31.9223C59.8109 28.6766 62.0383 26.29 65.0613 26.29C68.0524 26.29 70.3117 28.6766 70.3117 31.9223C70.3117 35.1999 68.0524 37.5864 65.0613 37.5864Z" fill="#353535"/>
<path d="M82.4648 40.9276C84.6286 40.9276 86.4105 40.0366 87.3652 38.4138V40.5457H90.77V23.3307H87.2061V33.4815C87.2061 35.9954 85.615 37.5864 83.3557 37.5864C81.1283 37.5864 79.5691 36.0272 79.5691 33.6406V23.3307H75.9733V33.9588C75.9733 38.0955 78.5508 40.9276 82.4648 40.9276Z" fill="#353535"/>
<path d="M106.227 40.9276C111.159 40.9276 114.85 37.0136 114.85 31.9223C114.85 26.831 111.127 22.9489 106.227 22.9489C103.872 22.9489 101.931 23.808 100.626 25.3036V16.4574H97.0305V40.5457H100.467V38.3501C101.74 40.0048 103.84 40.9276 106.227 40.9276ZM105.877 37.5864C102.854 37.5864 100.626 35.1999 100.626 31.9223C100.626 28.6766 102.854 26.29 105.877 26.29C108.9 26.29 111.127 28.6766 111.127 31.9223C111.127 35.1999 108.9 37.5864 105.877 37.5864Z" fill="#353535"/>
<path d="M122.739 40.9276C124.903 40.9276 126.685 40.0366 127.64 38.4138V40.5457H131.044V23.3307H127.48V33.4815C127.48 35.9954 125.889 37.5864 123.63 37.5864C121.403 37.5864 119.843 36.0272 119.843 33.6406V23.3307H116.248V33.9588C116.248 38.0955 118.825 40.9276 122.739 40.9276Z" fill="#353535"/>
<path d="M133.493 40.5457H137.088V30.6177C137.088 27.9129 138.679 26.3855 141.066 26.3855H142.562V23.108H141.511C139.411 23.108 137.82 23.808 136.929 25.5263V23.3307H133.493V40.5457Z" fill="#353535"/>
<path d="M143.271 40.5457H146.867V30.3949C146.867 27.8493 148.458 26.29 150.686 26.29C152.945 26.29 154.504 27.8493 154.504 30.3949V40.5457H158.068V29.4085C158.068 25.6218 155.331 22.9489 151.577 22.9489C149.445 22.9489 147.694 23.808 146.708 25.4309V23.3307H143.271V40.5457Z" fill="#353535"/>
<path d="M168.249 40.9276C171.749 40.9276 174.549 39.1138 175.599 36.6636L172.672 35.2317C171.813 36.6954 170.349 37.7455 168.28 37.7455C165.576 37.7455 163.444 35.8681 163.221 32.9724H176.013C176.14 32.4633 176.172 31.8269 176.172 31.2859C176.172 26.831 173.149 22.9489 167.962 22.9489C163.125 22.9489 159.466 26.7355 159.466 31.8905C159.466 36.9818 163.094 40.9276 168.249 40.9276ZM167.962 25.9718C170.381 25.9718 172.226 27.6583 172.353 30.1085H163.285C163.73 27.4992 165.639 25.9718 167.962 25.9718Z" fill="#353535"/>
<path d="M177.931 40.5457H181.527V30.6177C181.527 27.9129 183.118 26.3855 185.504 26.3855H187V23.108H185.95C183.85 23.108 182.259 23.808 181.368 25.5263V23.3307H177.931V40.5457Z" fill="#353535"/>
</svg>
