<svg width="40" height="40" viewBox="0 0 40 40" fill="none" xmlns="http://www.w3.org/2000/svg">
<path d="M18.3541 27.7705C18.8936 27.6563 22.1815 27.6563 22.7211 27.7705C23.1823 27.877 23.6811 28.126 23.6811 28.6695C23.6543 29.1869 23.3507 29.6457 22.9313 29.937C22.3874 30.361 21.7492 30.6295 21.082 30.7262C20.7129 30.774 20.3504 30.7751 19.9942 30.7262C19.3259 30.6295 18.6877 30.361 18.1449 29.9359C17.7244 29.6457 17.4208 29.1869 17.394 28.6695C17.394 28.126 17.8928 27.877 18.3541 27.7705ZM20.6013 9.17578C22.8465 9.17578 25.1399 10.2411 26.5023 12.0087C27.3862 13.1468 27.7917 14.2839 27.7917 16.0515V16.5113C27.7917 17.8669 28.1499 18.6659 28.9384 19.5866C29.5359 20.2649 29.7268 21.1357 29.7268 22.0803C29.7268 23.0239 29.4168 23.9197 28.7957 24.6469C27.9826 25.5187 26.8359 26.0753 25.6655 26.1721C23.9696 26.3166 22.2726 26.4384 20.553 26.4384C18.8324 26.4384 17.1364 26.3656 15.4405 26.1721C14.2691 26.0753 13.1223 25.5187 12.3103 24.6469C11.6892 23.9197 11.3781 23.0239 11.3781 22.0803C11.3781 21.1357 11.5701 20.2649 12.1666 19.5866C12.9797 18.6659 13.3144 17.8669 13.3144 16.5113V16.0515C13.3144 14.2361 13.767 13.049 14.6992 11.8869C16.0852 10.1922 18.3067 9.17578 20.5047 9.17578H20.6013Z" fill="#191919"/>
</svg>
