<svg width="14" height="11" viewBox="0 0 14 11" fill="none" xmlns="http://www.w3.org/2000/svg">
<path d="M8.72954 0.875463V2.31439C8.72954 2.99153 8.88473 3.56992 9.19508 4.04957C9.51955 4.54332 9.97802 4.87483 10.5705 5.04412H0.751953V6.73697H10.5705C9.97802 6.90626 9.51955 7.23073 9.19508 7.71038C8.88473 8.20412 8.72954 8.78957 8.72954 9.46671V10.9056H10.5494V9.65716C10.5494 8.78251 10.7821 8.07011 11.2477 7.51992C11.7132 6.96974 12.3621 6.69465 13.1945 6.69465H13.4484V5.08644H13.1945C12.3621 5.08644 11.7132 4.81135 11.2477 4.26118C10.7821 3.71099 10.5494 2.99859 10.5494 2.12394V0.875463H8.72954Z" fill="white"/>
</svg>
