<svg width="40" height="40" viewBox="0 0 40 40" fill="none" xmlns="http://www.w3.org/2000/svg">
<path d="M25.5439 26.072C25.9611 25.6576 26.6298 25.6576 27.047 26.072L29.8044 28.2977H29.8522C30.4101 28.8616 30.4101 29.7758 29.8522 30.3396C29.2944 30.9035 28.3899 30.9035 27.8321 30.3396L25.5439 27.7171L25.4571 27.6191C25.2953 27.4144 25.206 27.1591 25.206 26.8946C25.206 26.5859 25.3276 26.2899 25.5439 26.072ZM17.9421 9.17578C20.3975 9.17578 22.7523 10.1617 24.4886 11.9166C26.2248 13.6715 27.2002 16.0517 27.2002 18.5335C27.2002 23.7017 23.0552 27.8913 17.9421 27.8913C12.8289 27.8913 8.6839 23.7017 8.6839 18.5335C8.6839 13.3654 12.8289 9.17578 17.9421 9.17578Z" fill="#191919"/>
</svg>
