<svg width="59" height="59" viewBox="0 0 59 59" fill="none" xmlns="http://www.w3.org/2000/svg">
<rect y="59" width="59" height="59" rx="29.1828" transform="rotate(-90 0 59)" fill="white"/>
<path d="M18.7423 26.0049H21.8289C23.2814 26.0049 24.5221 25.672 25.551 25.0063C26.6102 24.3103 27.3213 23.3268 27.6844 22.0559V43.1174H31.3157V22.0559C31.6789 23.3268 32.3749 24.3103 33.4037 25.0063C34.4628 25.672 35.7187 26.0049 37.1712 26.0049H40.2578V22.1013H37.5797C35.7035 22.1013 34.1754 21.6019 32.9952 20.6033C31.815 19.6047 31.2249 18.2127 31.2249 16.4273V15.8826H27.7752V16.4273C27.7752 18.2127 27.1851 19.6047 26.0049 20.6033C24.8248 21.6019 23.2966 22.1013 21.4204 22.1013H18.7423V26.0049Z" fill="#E63D36"/>
</svg>
